solid Default
  facet normal -0.000000e+00 -0.000000e+00 -1.000000e+00
    outer loop
      vertex 1.450000e+01 6.500000e+00 0.000000e+00
      vertex 1.700000e+01 -1.700000e+01 0.000000e+00
      vertex 1.450000e+01 -6.500000e+00 0.000000e+00
    endloop
  endfacet
  facet normal 0.000000e+00 0.000000e+00 -1.000000e+00
    outer loop
      vertex 1.450000e+01 6.500000e+00 0.000000e+00
      vertex 1.700000e+01 1.700000e+01 0.000000e+00
      vertex 1.700000e+01 -1.700000e+01 0.000000e+00
    endloop
  endfacet
  facet normal 0.000000e+00 0.000000e+00 -1.000000e+00
    outer loop
      vertex 1.450000e+01 6.500000e+00 0.000000e+00
      vertex 1.329935e+01 1.214411e+01 0.000000e+00
      vertex 1.700000e+01 1.700000e+01 0.000000e+00
    endloop
  endfacet
  facet normal 0.000000e+00 0.000000e+00 -1.000000e+00
    outer loop
      vertex 1.450000e+01 6.500000e+00 0.000000e+00
      vertex 1.308549e+01 1.184975e+01 0.000000e+00
      vertex 1.329935e+01 1.214411e+01 0.000000e+00
    endloop
  endfacet
  facet normal 0.000000e+00 0.000000e+00 -1.000000e+00
    outer loop
      vertex 1.450000e+01 6.500000e+00 0.000000e+00
      vertex 1.277039e+01 1.166783e+01 0.000000e+00
      vertex 1.308549e+01 1.184975e+01 0.000000e+00
    endloop
  endfacet
  facet normal 0.000000e+00 0.000000e+00 -1.000000e+00
    outer loop
      vertex 1.450000e+01 6.500000e+00 0.000000e+00
      vertex 1.240854e+01 1.162979e+01 0.000000e+00
      vertex 1.277039e+01 1.166783e+01 0.000000e+00
    endloop
  endfacet
  facet normal 0.000000e+00 0.000000e+00 -1.000000e+00
    outer loop
      vertex 1.450000e+01 6.500000e+00 0.000000e+00
      vertex 1.206250e+01 1.174223e+01 0.000000e+00
      vertex 1.240854e+01 1.162979e+01 0.000000e+00
    endloop
  endfacet
  facet normal 0.000000e+00 0.000000e+00 -1.000000e+00
    outer loop
      vertex 1.450000e+01 6.500000e+00 0.000000e+00
      vertex 1.179211e+01 1.198569e+01 0.000000e+00
      vertex 1.206250e+01 1.174223e+01 0.000000e+00
    endloop
  endfacet
  facet normal 0.000000e+00 0.000000e+00 -1.000000e+00
    outer loop
      vertex 1.450000e+01 6.500000e+00 0.000000e+00
      vertex 6.500000e+00 1.450000e+01 0.000000e+00
      vertex 1.179211e+01 1.198569e+01 0.000000e+00
    endloop
  endfacet
  facet normal 0.000000e+00 0.000000e+00 -1.000000e+00
    outer loop
      vertex 1.179211e+01 1.198569e+01 0.000000e+00
      vertex 6.500000e+00 1.450000e+01 0.000000e+00
      vertex 1.164412e+01 1.231808e+01 0.000000e+00
    endloop
  endfacet
  facet normal 0.000000e+00 0.000000e+00 -1.000000e+00
    outer loop
      vertex 1.164412e+01 1.231808e+01 0.000000e+00
      vertex 6.500000e+00 1.450000e+01 0.000000e+00
      vertex 1.164412e+01 1.268192e+01 0.000000e+00
    endloop
  endfacet
  facet normal 0.000000e+00 0.000000e+00 -1.000000e+00
    outer loop
      vertex 1.164412e+01 1.268192e+01 0.000000e+00
      vertex 6.500000e+00 1.450000e+01 0.000000e+00
      vertex 1.179211e+01 1.301431e+01 0.000000e+00
    endloop
  endfacet
  facet normal 0.000000e+00 0.000000e+00 -1.000000e+00
    outer loop
      vertex 1.179211e+01 1.301431e+01 0.000000e+00
      vertex 6.500000e+00 1.450000e+01 0.000000e+00
      vertex 1.206250e+01 1.325777e+01 0.000000e+00
    endloop
  endfacet
  facet normal 0.000000e+00 0.000000e+00 -1.000000e+00
    outer loop
      vertex 1.206250e+01 1.325777e+01 0.000000e+00
      vertex 6.500000e+00 1.450000e+01 0.000000e+00
      vertex 1.240854e+01 1.337021e+01 0.000000e+00
    endloop
  endfacet
  facet normal 0.000000e+00 0.000000e+00 -1.000000e+00
    outer loop
      vertex 1.240854e+01 1.337021e+01 0.000000e+00
      vertex 6.500000e+00 1.450000e+01 0.000000e+00
      vertex 1.700000e+01 1.700000e+01 0.000000e+00
    endloop
  endfacet
  facet normal 0.000000e+00 0.000000e+00 -1.000000e+00
    outer loop
      vertex 1.277039e+01 1.333217e+01 0.000000e+00
      vertex 1.700000e+01 1.700000e+01 0.000000e+00
      vertex 1.308549e+01 1.315025e+01 0.000000e+00
    endloop
  endfacet
  facet normal 0.000000e+00 0.000000e+00 -1.000000e+00
    outer loop
      vertex 1.277039e+01 1.333217e+01 0.000000e+00
      vertex 1.240854e+01 1.337021e+01 0.000000e+00
      vertex 1.700000e+01 1.700000e+01 0.000000e+00
    endloop
  endfacet
  facet normal 0.000000e+00 0.000000e+00 -1.000000e+00
    outer loop
      vertex 6.500000e+00 1.450000e+01 0.000000e+00
      vertex -6.500000e+00 1.450000e+01 0.000000e+00
      vertex 1.700000e+01 1.700000e+01 0.000000e+00
    endloop
  endfacet
  facet normal 0.000000e+00 0.000000e+00 -1.000000e+00
    outer loop
      vertex 1.700000e+01 1.700000e+01 0.000000e+00
      vertex -6.500000e+00 1.450000e+01 0.000000e+00
      vertex -1.700000e+01 1.700000e+01 0.000000e+00
    endloop
  endfacet
  facet normal 0.000000e+00 0.000000e+00 -1.000000e+00
    outer loop
      vertex -1.700000e+01 1.700000e+01 0.000000e+00
      vertex -6.500000e+00 1.450000e+01 0.000000e+00
      vertex -1.222961e+01 1.333217e+01 0.000000e+00
    endloop
  endfacet
  facet normal 0.000000e+00 0.000000e+00 -1.000000e+00
    outer loop
      vertex -1.259146e+01 1.337021e+01 0.000000e+00
      vertex -1.700000e+01 1.700000e+01 0.000000e+00
      vertex -1.222961e+01 1.333217e+01 0.000000e+00
    endloop
  endfacet
  facet normal 0.000000e+00 0.000000e+00 -1.000000e+00
    outer loop
      vertex -1.259146e+01 1.337021e+01 0.000000e+00
      vertex -1.293750e+01 1.325777e+01 0.000000e+00
      vertex -1.700000e+01 1.700000e+01 0.000000e+00
    endloop
  endfacet
  facet normal 0.000000e+00 0.000000e+00 -1.000000e+00
    outer loop
      vertex -1.700000e+01 1.700000e+01 0.000000e+00
      vertex -1.293750e+01 1.325777e+01 0.000000e+00
      vertex -1.320789e+01 1.301431e+01 0.000000e+00
    endloop
  endfacet
  facet normal 0.000000e+00 0.000000e+00 -1.000000e+00
    outer loop
      vertex -1.335588e+01 1.268192e+01 0.000000e+00
      vertex -1.700000e+01 1.700000e+01 0.000000e+00
      vertex -1.320789e+01 1.301431e+01 0.000000e+00
    endloop
  endfacet
  facet normal -0.000000e+00 -0.000000e+00 -1.000000e+00
    outer loop
      vertex -1.335588e+01 1.268192e+01 0.000000e+00
      vertex -1.335588e+01 1.231808e+01 0.000000e+00
      vertex -1.700000e+01 1.700000e+01 0.000000e+00
    endloop
  endfacet
  facet normal 0.000000e+00 0.000000e+00 -1.000000e+00
    outer loop
      vertex -1.700000e+01 1.700000e+01 0.000000e+00
      vertex -1.335588e+01 1.231808e+01 0.000000e+00
      vertex -1.450000e+01 6.500000e+00 0.000000e+00
    endloop
  endfacet
  facet normal 0.000000e+00 0.000000e+00 -1.000000e+00
    outer loop
      vertex -1.700000e+01 -1.700000e+01 0.000000e+00
      vertex -1.450000e+01 6.500000e+00 0.000000e+00
      vertex -1.450000e+01 -6.500000e+00 0.000000e+00
    endloop
  endfacet
  facet normal 0.000000e+00 0.000000e+00 -1.000000e+00
    outer loop
      vertex -1.335588e+01 -1.231808e+01 0.000000e+00
      vertex -1.450000e+01 -6.500000e+00 0.000000e+00
      vertex -1.320789e+01 -1.198569e+01 0.000000e+00
    endloop
  endfacet
  facet normal 0.000000e+00 0.000000e+00 -1.000000e+00
    outer loop
      vertex -1.335588e+01 -1.231808e+01 0.000000e+00
      vertex -1.700000e+01 -1.700000e+01 0.000000e+00
      vertex -1.450000e+01 -6.500000e+00 0.000000e+00
    endloop
  endfacet
  facet normal 0.000000e+00 0.000000e+00 -1.000000e+00
    outer loop
      vertex -1.335588e+01 -1.231808e+01 0.000000e+00
      vertex -1.335588e+01 -1.268192e+01 0.000000e+00
      vertex -1.700000e+01 -1.700000e+01 0.000000e+00
    endloop
  endfacet
  facet normal 0.000000e+00 0.000000e+00 -1.000000e+00
    outer loop
      vertex -1.700000e+01 -1.700000e+01 0.000000e+00
      vertex -1.335588e+01 -1.268192e+01 0.000000e+00
      vertex -1.320789e+01 -1.301431e+01 0.000000e+00
    endloop
  endfacet
  facet normal 0.000000e+00 0.000000e+00 -1.000000e+00
    outer loop
      vertex -1.293750e+01 -1.325777e+01 0.000000e+00
      vertex -1.700000e+01 -1.700000e+01 0.000000e+00
      vertex -1.320789e+01 -1.301431e+01 0.000000e+00
    endloop
  endfacet
  facet normal 0.000000e+00 0.000000e+00 -1.000000e+00
    outer loop
      vertex -1.293750e+01 -1.325777e+01 0.000000e+00
      vertex -1.259146e+01 -1.337021e+01 0.000000e+00
      vertex -1.700000e+01 -1.700000e+01 0.000000e+00
    endloop
  endfacet
  facet normal 0.000000e+00 0.000000e+00 -1.000000e+00
    outer loop
      vertex -1.700000e+01 -1.700000e+01 0.000000e+00
      vertex -1.259146e+01 -1.337021e+01 0.000000e+00
      vertex -1.222961e+01 -1.333217e+01 0.000000e+00
    endloop
  endfacet
  facet normal 0.000000e+00 0.000000e+00 -1.000000e+00
    outer loop
      vertex -6.500000e+00 -1.450000e+01 0.000000e+00
      vertex -1.222961e+01 -1.333217e+01 0.000000e+00
      vertex -1.191451e+01 -1.315025e+01 0.000000e+00
    endloop
  endfacet
  facet normal -0.000000e+00 -0.000000e+00 -1.000000e+00
    outer loop
      vertex -1.170065e+01 -1.285589e+01 0.000000e+00
      vertex -6.500000e+00 -1.450000e+01 0.000000e+00
      vertex -1.191451e+01 -1.315025e+01 0.000000e+00
    endloop
  endfacet
  facet normal 0.000000e+00 0.000000e+00 -1.000000e+00
    outer loop
      vertex -1.170065e+01 -1.285589e+01 0.000000e+00
      vertex -1.162500e+01 -1.250000e+01 0.000000e+00
      vertex -6.500000e+00 -1.450000e+01 0.000000e+00
    endloop
  endfacet
  facet normal 0.000000e+00 0.000000e+00 -1.000000e+00
    outer loop
      vertex -6.500000e+00 -1.450000e+01 0.000000e+00
      vertex -1.162500e+01 -1.250000e+01 0.000000e+00
      vertex -1.170065e+01 -1.214411e+01 0.000000e+00
    endloop
  endfacet
  facet normal -0.000000e+00 -0.000000e+00 -1.000000e+00
    outer loop
      vertex -1.191451e+01 -1.184975e+01 0.000000e+00
      vertex -6.500000e+00 -1.450000e+01 0.000000e+00
      vertex -1.170065e+01 -1.214411e+01 0.000000e+00
    endloop
  endfacet
  facet normal 0.000000e+00 0.000000e+00 -1.000000e+00
    outer loop
      vertex -1.191451e+01 -1.184975e+01 0.000000e+00
      vertex -1.450000e+01 -6.500000e+00 0.000000e+00
      vertex -6.500000e+00 -1.450000e+01 0.000000e+00
    endloop
  endfacet
  facet normal 0.000000e+00 0.000000e+00 -1.000000e+00
    outer loop
      vertex -1.191451e+01 -1.184975e+01 0.000000e+00
      vertex -1.222961e+01 -1.166783e+01 0.000000e+00
      vertex -1.450000e+01 -6.500000e+00 0.000000e+00
    endloop
  endfacet
  facet normal -0.000000e+00 -0.000000e+00 -1.000000e+00
    outer loop
      vertex -1.450000e+01 -6.500000e+00 0.000000e+00
      vertex -1.222961e+01 -1.166783e+01 0.000000e+00
      vertex -1.259146e+01 -1.162979e+01 0.000000e+00
    endloop
  endfacet
  facet normal 0.000000e+00 0.000000e+00 -1.000000e+00
    outer loop
      vertex -1.293750e+01 -1.174223e+01 0.000000e+00
      vertex -1.450000e+01 -6.500000e+00 0.000000e+00
      vertex -1.259146e+01 -1.162979e+01 0.000000e+00
    endloop
  endfacet
  facet normal 0.000000e+00 0.000000e+00 -1.000000e+00
    outer loop
      vertex -1.293750e+01 -1.174223e+01 0.000000e+00
      vertex -1.320789e+01 -1.198569e+01 0.000000e+00
      vertex -1.450000e+01 -6.500000e+00 0.000000e+00
    endloop
  endfacet
  facet normal 0.000000e+00 0.000000e+00 -1.000000e+00
    outer loop
      vertex 1.450000e+01 -6.500000e+00 0.000000e+00
      vertex -1.450000e+01 6.500000e+00 0.000000e+00
      vertex -6.500000e+00 1.450000e+01 0.000000e+00
    endloop
  endfacet
  facet normal 0.000000e+00 0.000000e+00 -1.000000e+00
    outer loop
      vertex 1.450000e+01 -6.500000e+00 0.000000e+00
      vertex 6.500000e+00 -1.450000e+01 0.000000e+00
      vertex -1.450000e+01 6.500000e+00 0.000000e+00
    endloop
  endfacet
  facet normal 0.000000e+00 0.000000e+00 -1.000000e+00
    outer loop
      vertex 1.450000e+01 -6.500000e+00 0.000000e+00
      vertex 1.179211e+01 -1.198569e+01 0.000000e+00
      vertex 6.500000e+00 -1.450000e+01 0.000000e+00
    endloop
  endfacet
  facet normal 0.000000e+00 0.000000e+00 -1.000000e+00
    outer loop
      vertex 1.450000e+01 -6.500000e+00 0.000000e+00
      vertex 1.206250e+01 -1.174223e+01 0.000000e+00
      vertex 1.179211e+01 -1.198569e+01 0.000000e+00
    endloop
  endfacet
  facet normal 0.000000e+00 0.000000e+00 -1.000000e+00
    outer loop
      vertex 1.450000e+01 -6.500000e+00 0.000000e+00
      vertex 1.240854e+01 -1.162979e+01 0.000000e+00
      vertex 1.206250e+01 -1.174223e+01 0.000000e+00
    endloop
  endfacet
  facet normal 0.000000e+00 0.000000e+00 -1.000000e+00
    outer loop
      vertex 1.450000e+01 -6.500000e+00 0.000000e+00
      vertex 1.277039e+01 -1.166783e+01 0.000000e+00
      vertex 1.240854e+01 -1.162979e+01 0.000000e+00
    endloop
  endfacet
  facet normal 0.000000e+00 0.000000e+00 -1.000000e+00
    outer loop
      vertex 1.450000e+01 -6.500000e+00 0.000000e+00
      vertex 1.308549e+01 -1.184975e+01 0.000000e+00
      vertex 1.277039e+01 -1.166783e+01 0.000000e+00
    endloop
  endfacet
  facet normal 0.000000e+00 0.000000e+00 -1.000000e+00
    outer loop
      vertex 1.450000e+01 -6.500000e+00 0.000000e+00
      vertex 1.329935e+01 -1.214411e+01 0.000000e+00
      vertex 1.308549e+01 -1.184975e+01 0.000000e+00
    endloop
  endfacet
  facet normal -0.000000e+00 -0.000000e+00 -1.000000e+00
    outer loop
      vertex 1.450000e+01 -6.500000e+00 0.000000e+00
      vertex 1.700000e+01 -1.700000e+01 0.000000e+00
      vertex 1.329935e+01 -1.214411e+01 0.000000e+00
    endloop
  endfacet
  facet normal -0.000000e+00 -0.000000e+00 -1.000000e+00
    outer loop
      vertex 1.329935e+01 -1.214411e+01 0.000000e+00
      vertex 1.700000e+01 -1.700000e+01 0.000000e+00
      vertex 1.337500e+01 -1.250000e+01 0.000000e+00
    endloop
  endfacet
  facet normal -0.000000e+00 -0.000000e+00 -1.000000e+00
    outer loop
      vertex 1.337500e+01 -1.250000e+01 0.000000e+00
      vertex 1.700000e+01 -1.700000e+01 0.000000e+00
      vertex 1.329935e+01 -1.285589e+01 0.000000e+00
    endloop
  endfacet
  facet normal -0.000000e+00 -0.000000e+00 -1.000000e+00
    outer loop
      vertex 1.329935e+01 -1.285589e+01 0.000000e+00
      vertex 1.700000e+01 -1.700000e+01 0.000000e+00
      vertex 1.308549e+01 -1.315025e+01 0.000000e+00
    endloop
  endfacet
  facet normal -0.000000e+00 -0.000000e+00 -1.000000e+00
    outer loop
      vertex 1.308549e+01 -1.315025e+01 0.000000e+00
      vertex 1.700000e+01 -1.700000e+01 0.000000e+00
      vertex 1.277039e+01 -1.333217e+01 0.000000e+00
    endloop
  endfacet
  facet normal -0.000000e+00 -0.000000e+00 -1.000000e+00
    outer loop
      vertex 1.277039e+01 -1.333217e+01 0.000000e+00
      vertex 1.700000e+01 -1.700000e+01 0.000000e+00
      vertex 1.240854e+01 -1.337021e+01 0.000000e+00
    endloop
  endfacet
  facet normal -0.000000e+00 -0.000000e+00 -1.000000e+00
    outer loop
      vertex 1.240854e+01 -1.337021e+01 0.000000e+00
      vertex 1.700000e+01 -1.700000e+01 0.000000e+00
      vertex 6.500000e+00 -1.450000e+01 0.000000e+00
    endloop
  endfacet
  facet normal 0.000000e+00 0.000000e+00 -1.000000e+00
    outer loop
      vertex 1.206250e+01 -1.325777e+01 0.000000e+00
      vertex 6.500000e+00 -1.450000e+01 0.000000e+00
      vertex 1.179211e+01 -1.301431e+01 0.000000e+00
    endloop
  endfacet
  facet normal 0.000000e+00 0.000000e+00 -1.000000e+00
    outer loop
      vertex 1.206250e+01 -1.325777e+01 0.000000e+00
      vertex 1.240854e+01 -1.337021e+01 0.000000e+00
      vertex 6.500000e+00 -1.450000e+01 0.000000e+00
    endloop
  endfacet
  facet normal 0.000000e+00 0.000000e+00 -1.000000e+00
    outer loop
      vertex -1.700000e+01 -1.700000e+01 0.000000e+00
      vertex -1.222961e+01 -1.333217e+01 0.000000e+00
      vertex -6.500000e+00 -1.450000e+01 0.000000e+00
    endloop
  endfacet
  facet normal 0.000000e+00 0.000000e+00 -1.000000e+00
    outer loop
      vertex 6.500000e+00 -1.450000e+01 0.000000e+00
      vertex -1.700000e+01 -1.700000e+01 0.000000e+00
      vertex -6.500000e+00 -1.450000e+01 0.000000e+00
    endloop
  endfacet
  facet normal 0.000000e+00 0.000000e+00 -1.000000e+00
    outer loop
      vertex 6.500000e+00 -1.450000e+01 0.000000e+00
      vertex 1.700000e+01 -1.700000e+01 0.000000e+00
      vertex -1.700000e+01 -1.700000e+01 0.000000e+00
    endloop
  endfacet
  facet normal 0.000000e+00 0.000000e+00 -1.000000e+00
    outer loop
      vertex 1.179211e+01 -1.198569e+01 0.000000e+00
      vertex 1.164412e+01 -1.231808e+01 0.000000e+00
      vertex 6.500000e+00 -1.450000e+01 0.000000e+00
    endloop
  endfacet
  facet normal 0.000000e+00 0.000000e+00 -1.000000e+00
    outer loop
      vertex 6.500000e+00 -1.450000e+01 0.000000e+00
      vertex 1.164412e+01 -1.231808e+01 0.000000e+00
      vertex 1.164412e+01 -1.268192e+01 0.000000e+00
    endloop
  endfacet
  facet normal 0.000000e+00 0.000000e+00 -1.000000e+00
    outer loop
      vertex 1.179211e+01 -1.301431e+01 0.000000e+00
      vertex 6.500000e+00 -1.450000e+01 0.000000e+00
      vertex 1.164412e+01 -1.268192e+01 0.000000e+00
    endloop
  endfacet
  facet normal 0.000000e+00 0.000000e+00 -1.000000e+00
    outer loop
      vertex 1.329935e+01 1.214411e+01 0.000000e+00
      vertex 1.337500e+01 1.250000e+01 0.000000e+00
      vertex 1.700000e+01 1.700000e+01 0.000000e+00
    endloop
  endfacet
  facet normal 0.000000e+00 0.000000e+00 -1.000000e+00
    outer loop
      vertex 1.700000e+01 1.700000e+01 0.000000e+00
      vertex 1.337500e+01 1.250000e+01 0.000000e+00
      vertex 1.329935e+01 1.285589e+01 0.000000e+00
    endloop
  endfacet
  facet normal 0.000000e+00 0.000000e+00 -1.000000e+00
    outer loop
      vertex 1.308549e+01 1.315025e+01 0.000000e+00
      vertex 1.700000e+01 1.700000e+01 0.000000e+00
      vertex 1.329935e+01 1.285589e+01 0.000000e+00
    endloop
  endfacet
  facet normal 0.000000e+00 0.000000e+00 -1.000000e+00
    outer loop
      vertex -1.170065e+01 1.214411e+01 0.000000e+00
      vertex -1.162500e+01 1.250000e+01 0.000000e+00
      vertex -6.500000e+00 1.450000e+01 0.000000e+00
    endloop
  endfacet
  facet normal 0.000000e+00 0.000000e+00 -1.000000e+00
    outer loop
      vertex -1.191451e+01 1.184975e+01 0.000000e+00
      vertex -6.500000e+00 1.450000e+01 0.000000e+00
      vertex -1.450000e+01 6.500000e+00 0.000000e+00
    endloop
  endfacet
  facet normal 0.000000e+00 0.000000e+00 -1.000000e+00
    outer loop
      vertex -1.222961e+01 1.166783e+01 0.000000e+00
      vertex -1.450000e+01 6.500000e+00 0.000000e+00
      vertex -1.259146e+01 1.162979e+01 0.000000e+00
    endloop
  endfacet
  facet normal 0.000000e+00 0.000000e+00 -1.000000e+00
    outer loop
      vertex -1.222961e+01 1.166783e+01 0.000000e+00
      vertex -1.191451e+01 1.184975e+01 0.000000e+00
      vertex -1.450000e+01 6.500000e+00 0.000000e+00
    endloop
  endfacet
  facet normal 0.000000e+00 0.000000e+00 -1.000000e+00
    outer loop
      vertex -1.162500e+01 1.250000e+01 0.000000e+00
      vertex -1.170065e+01 1.285589e+01 0.000000e+00
      vertex -6.500000e+00 1.450000e+01 0.000000e+00
    endloop
  endfacet
  facet normal 0.000000e+00 0.000000e+00 -1.000000e+00
    outer loop
      vertex -6.500000e+00 1.450000e+01 0.000000e+00
      vertex -1.170065e+01 1.285589e+01 0.000000e+00
      vertex -1.191451e+01 1.315025e+01 0.000000e+00
    endloop
  endfacet
  facet normal 0.000000e+00 0.000000e+00 -1.000000e+00
    outer loop
      vertex -1.222961e+01 1.333217e+01 0.000000e+00
      vertex -6.500000e+00 1.450000e+01 0.000000e+00
      vertex -1.191451e+01 1.315025e+01 0.000000e+00
    endloop
  endfacet
  facet normal 0.000000e+00 0.000000e+00 -1.000000e+00
    outer loop
      vertex -1.335588e+01 1.231808e+01 0.000000e+00
      vertex -1.320789e+01 1.198569e+01 0.000000e+00
      vertex -1.450000e+01 6.500000e+00 0.000000e+00
    endloop
  endfacet
  facet normal 0.000000e+00 0.000000e+00 -1.000000e+00
    outer loop
      vertex -1.450000e+01 6.500000e+00 0.000000e+00
      vertex -1.320789e+01 1.198569e+01 0.000000e+00
      vertex -1.293750e+01 1.174223e+01 0.000000e+00
    endloop
  endfacet
  facet normal 0.000000e+00 0.000000e+00 -1.000000e+00
    outer loop
      vertex -1.259146e+01 1.162979e+01 0.000000e+00
      vertex -1.450000e+01 6.500000e+00 0.000000e+00
      vertex -1.293750e+01 1.174223e+01 0.000000e+00
    endloop
  endfacet
  facet normal 0.000000e+00 0.000000e+00 -1.000000e+00
    outer loop
      vertex -1.191451e+01 1.184975e+01 0.000000e+00
      vertex -1.170065e+01 1.214411e+01 0.000000e+00
      vertex -6.500000e+00 1.450000e+01 0.000000e+00
    endloop
  endfacet
  facet normal 0.000000e+00 0.000000e+00 -1.000000e+00
    outer loop
      vertex -1.700000e+01 1.700000e+01 0.000000e+00
      vertex -1.450000e+01 6.500000e+00 0.000000e+00
      vertex -1.700000e+01 -1.700000e+01 0.000000e+00
    endloop
  endfacet
  facet normal 0.000000e+00 1.000000e+00 0.000000e+00
    outer loop
      vertex -1.550000e+01 1.550000e+01 2.000000e+00
      vertex 1.550000e+01 1.550000e+01 2.000000e+00
      vertex -1.550000e+01 1.550000e+01 1.500000e+00
    endloop
  endfacet
  facet normal 0.000000e+00 1.000000e+00 0.000000e+00
    outer loop
      vertex -1.550000e+01 1.550000e+01 1.500000e+00
      vertex 1.550000e+01 1.550000e+01 2.000000e+00
      vertex 1.550000e+01 1.550000e+01 1.500000e+00
    endloop
  endfacet
  facet normal -1.000000e+00 -2.292073e-16 0.000000e+00
    outer loop
      vertex -1.550000e+01 -1.550000e+01 2.000000e+00
      vertex -1.550000e+01 1.550000e+01 2.000000e+00
      vertex -1.550000e+01 -1.550000e+01 1.500000e+00
    endloop
  endfacet
  facet normal -1.000000e+00 -2.292073e-16 -0.000000e+00
    outer loop
      vertex -1.550000e+01 -1.550000e+01 1.500000e+00
      vertex -1.550000e+01 1.550000e+01 2.000000e+00
      vertex -1.550000e+01 1.550000e+01 1.500000e+00
    endloop
  endfacet
  facet normal 1.289291e-16 -1.000000e+00 0.000000e+00
    outer loop
      vertex 1.550000e+01 -1.550000e+01 2.000000e+00
      vertex -1.550000e+01 -1.550000e+01 2.000000e+00
      vertex 1.550000e+01 -1.550000e+01 1.500000e+00
    endloop
  endfacet
  facet normal 1.289291e-16 -1.000000e+00 0.000000e+00
    outer loop
      vertex 1.550000e+01 -1.550000e+01 1.500000e+00
      vertex -1.550000e+01 -1.550000e+01 2.000000e+00
      vertex -1.550000e+01 -1.550000e+01 1.500000e+00
    endloop
  endfacet
  facet normal 1.000000e+00 6.446456e-17 0.000000e+00
    outer loop
      vertex 1.550000e+01 1.550000e+01 2.000000e+00
      vertex 1.550000e+01 -1.550000e+01 2.000000e+00
      vertex 1.550000e+01 1.550000e+01 1.500000e+00
    endloop
  endfacet
  facet normal 1.000000e+00 6.446456e-17 0.000000e+00
    outer loop
      vertex 1.550000e+01 1.550000e+01 1.500000e+00
      vertex 1.550000e+01 -1.550000e+01 2.000000e+00
      vertex 1.550000e+01 -1.550000e+01 1.500000e+00
    endloop
  endfacet
  facet normal 0.000000e+00 0.000000e+00 1.000000e+00
    outer loop
      vertex -6.500000e+00 -1.450000e+01 3.500000e+00
      vertex 1.700000e+01 -1.700000e+01 3.500000e+00
      vertex 6.500000e+00 -1.450000e+01 3.500000e+00
    endloop
  endfacet
  facet normal 0.000000e+00 0.000000e+00 1.000000e+00
    outer loop
      vertex -6.500000e+00 -1.450000e+01 3.500000e+00
      vertex -1.700000e+01 -1.700000e+01 3.500000e+00
      vertex 1.700000e+01 -1.700000e+01 3.500000e+00
    endloop
  endfacet
  facet normal 0.000000e+00 0.000000e+00 1.000000e+00
    outer loop
      vertex -6.500000e+00 -1.450000e+01 3.500000e+00
      vertex -1.222961e+01 -1.333217e+01 3.500000e+00
      vertex -1.700000e+01 -1.700000e+01 3.500000e+00
    endloop
  endfacet
  facet normal 0.000000e+00 0.000000e+00 1.000000e+00
    outer loop
      vertex -6.500000e+00 -1.450000e+01 3.500000e+00
      vertex -1.191451e+01 -1.315025e+01 3.500000e+00
      vertex -1.222961e+01 -1.333217e+01 3.500000e+00
    endloop
  endfacet
  facet normal 0.000000e+00 0.000000e+00 1.000000e+00
    outer loop
      vertex -6.500000e+00 -1.450000e+01 3.500000e+00
      vertex -1.170065e+01 -1.285589e+01 3.500000e+00
      vertex -1.191451e+01 -1.315025e+01 3.500000e+00
    endloop
  endfacet
  facet normal 0.000000e+00 0.000000e+00 1.000000e+00
    outer loop
      vertex -6.500000e+00 -1.450000e+01 3.500000e+00
      vertex -1.162500e+01 -1.250000e+01 3.500000e+00
      vertex -1.170065e+01 -1.285589e+01 3.500000e+00
    endloop
  endfacet
  facet normal 0.000000e+00 0.000000e+00 1.000000e+00
    outer loop
      vertex -6.500000e+00 -1.450000e+01 3.500000e+00
      vertex -1.170065e+01 -1.214411e+01 3.500000e+00
      vertex -1.162500e+01 -1.250000e+01 3.500000e+00
    endloop
  endfacet
  facet normal 0.000000e+00 0.000000e+00 1.000000e+00
    outer loop
      vertex -6.500000e+00 -1.450000e+01 3.500000e+00
      vertex -1.191451e+01 -1.184975e+01 3.500000e+00
      vertex -1.170065e+01 -1.214411e+01 3.500000e+00
    endloop
  endfacet
  facet normal 0.000000e+00 0.000000e+00 1.000000e+00
    outer loop
      vertex -6.500000e+00 -1.450000e+01 3.500000e+00
      vertex -1.450000e+01 -6.500000e+00 3.500000e+00
      vertex -1.191451e+01 -1.184975e+01 3.500000e+00
    endloop
  endfacet
  facet normal 0.000000e+00 0.000000e+00 1.000000e+00
    outer loop
      vertex -1.191451e+01 -1.184975e+01 3.500000e+00
      vertex -1.450000e+01 -6.500000e+00 3.500000e+00
      vertex -1.222961e+01 -1.166783e+01 3.500000e+00
    endloop
  endfacet
  facet normal 0.000000e+00 0.000000e+00 1.000000e+00
    outer loop
      vertex -1.222961e+01 -1.166783e+01 3.500000e+00
      vertex -1.450000e+01 -6.500000e+00 3.500000e+00
      vertex -1.259146e+01 -1.162979e+01 3.500000e+00
    endloop
  endfacet
  facet normal 0.000000e+00 0.000000e+00 1.000000e+00
    outer loop
      vertex -1.259146e+01 -1.162979e+01 3.500000e+00
      vertex -1.450000e+01 -6.500000e+00 3.500000e+00
      vertex -1.293750e+01 -1.174223e+01 3.500000e+00
    endloop
  endfacet
  facet normal 0.000000e+00 0.000000e+00 1.000000e+00
    outer loop
      vertex -1.293750e+01 -1.174223e+01 3.500000e+00
      vertex -1.450000e+01 -6.500000e+00 3.500000e+00
      vertex -1.320789e+01 -1.198569e+01 3.500000e+00
    endloop
  endfacet
  facet normal 0.000000e+00 0.000000e+00 1.000000e+00
    outer loop
      vertex -1.320789e+01 -1.198569e+01 3.500000e+00
      vertex -1.450000e+01 -6.500000e+00 3.500000e+00
      vertex -1.335588e+01 -1.231808e+01 3.500000e+00
    endloop
  endfacet
  facet normal 0.000000e+00 0.000000e+00 1.000000e+00
    outer loop
      vertex -1.335588e+01 -1.231808e+01 3.500000e+00
      vertex -1.450000e+01 -6.500000e+00 3.500000e+00
      vertex -1.700000e+01 -1.700000e+01 3.500000e+00
    endloop
  endfacet
  facet normal 0.000000e+00 0.000000e+00 1.000000e+00
    outer loop
      vertex -1.335588e+01 -1.268192e+01 3.500000e+00
      vertex -1.700000e+01 -1.700000e+01 3.500000e+00
      vertex -1.320789e+01 -1.301431e+01 3.500000e+00
    endloop
  endfacet
  facet normal 0.000000e+00 0.000000e+00 1.000000e+00
    outer loop
      vertex -1.335588e+01 -1.268192e+01 3.500000e+00
      vertex -1.335588e+01 -1.231808e+01 3.500000e+00
      vertex -1.700000e+01 -1.700000e+01 3.500000e+00
    endloop
  endfacet
  facet normal 0.000000e+00 0.000000e+00 1.000000e+00
    outer loop
      vertex -1.450000e+01 -6.500000e+00 3.500000e+00
      vertex -1.450000e+01 6.500000e+00 3.500000e+00
      vertex -1.700000e+01 -1.700000e+01 3.500000e+00
    endloop
  endfacet
  facet normal 0.000000e+00 0.000000e+00 1.000000e+00
    outer loop
      vertex -1.700000e+01 -1.700000e+01 3.500000e+00
      vertex -1.450000e+01 6.500000e+00 3.500000e+00
      vertex -1.700000e+01 1.700000e+01 3.500000e+00
    endloop
  endfacet
  facet normal 0.000000e+00 0.000000e+00 1.000000e+00
    outer loop
      vertex -1.700000e+01 1.700000e+01 3.500000e+00
      vertex -1.450000e+01 6.500000e+00 3.500000e+00
      vertex -1.335588e+01 1.231808e+01 3.500000e+00
    endloop
  endfacet
  facet normal 0.000000e+00 0.000000e+00 1.000000e+00
    outer loop
      vertex -1.335588e+01 1.268192e+01 3.500000e+00
      vertex -1.700000e+01 1.700000e+01 3.500000e+00
      vertex -1.335588e+01 1.231808e+01 3.500000e+00
    endloop
  endfacet
  facet normal 0.000000e+00 0.000000e+00 1.000000e+00
    outer loop
      vertex -1.335588e+01 1.268192e+01 3.500000e+00
      vertex -1.320789e+01 1.301431e+01 3.500000e+00
      vertex -1.700000e+01 1.700000e+01 3.500000e+00
    endloop
  endfacet
  facet normal 0.000000e+00 0.000000e+00 1.000000e+00
    outer loop
      vertex -1.700000e+01 1.700000e+01 3.500000e+00
      vertex -1.320789e+01 1.301431e+01 3.500000e+00
      vertex -1.293750e+01 1.325777e+01 3.500000e+00
    endloop
  endfacet
  facet normal 0.000000e+00 0.000000e+00 1.000000e+00
    outer loop
      vertex -1.259146e+01 1.337021e+01 3.500000e+00
      vertex -1.700000e+01 1.700000e+01 3.500000e+00
      vertex -1.293750e+01 1.325777e+01 3.500000e+00
    endloop
  endfacet
  facet normal 0.000000e+00 0.000000e+00 1.000000e+00
    outer loop
      vertex -1.259146e+01 1.337021e+01 3.500000e+00
      vertex -1.222961e+01 1.333217e+01 3.500000e+00
      vertex -1.700000e+01 1.700000e+01 3.500000e+00
    endloop
  endfacet
  facet normal 0.000000e+00 0.000000e+00 1.000000e+00
    outer loop
      vertex -1.700000e+01 1.700000e+01 3.500000e+00
      vertex -1.222961e+01 1.333217e+01 3.500000e+00
      vertex -6.500000e+00 1.450000e+01 3.500000e+00
    endloop
  endfacet
  facet normal 0.000000e+00 0.000000e+00 1.000000e+00
    outer loop
      vertex 6.500000e+00 1.450000e+01 3.500000e+00
      vertex -1.700000e+01 1.700000e+01 3.500000e+00
      vertex -6.500000e+00 1.450000e+01 3.500000e+00
    endloop
  endfacet
  facet normal 0.000000e+00 0.000000e+00 1.000000e+00
    outer loop
      vertex 6.500000e+00 1.450000e+01 3.500000e+00
      vertex 1.700000e+01 1.700000e+01 3.500000e+00
      vertex -1.700000e+01 1.700000e+01 3.500000e+00
    endloop
  endfacet
  facet normal 0.000000e+00 0.000000e+00 1.000000e+00
    outer loop
      vertex 6.500000e+00 1.450000e+01 3.500000e+00
      vertex 1.240854e+01 1.337021e+01 3.500000e+00
      vertex 1.700000e+01 1.700000e+01 3.500000e+00
    endloop
  endfacet
  facet normal 0.000000e+00 0.000000e+00 1.000000e+00
    outer loop
      vertex 6.500000e+00 1.450000e+01 3.500000e+00
      vertex 1.206250e+01 1.325777e+01 3.500000e+00
      vertex 1.240854e+01 1.337021e+01 3.500000e+00
    endloop
  endfacet
  facet normal 0.000000e+00 0.000000e+00 1.000000e+00
    outer loop
      vertex 6.500000e+00 1.450000e+01 3.500000e+00
      vertex 1.179211e+01 1.301431e+01 3.500000e+00
      vertex 1.206250e+01 1.325777e+01 3.500000e+00
    endloop
  endfacet
  facet normal 0.000000e+00 0.000000e+00 1.000000e+00
    outer loop
      vertex 6.500000e+00 1.450000e+01 3.500000e+00
      vertex 1.164412e+01 1.268192e+01 3.500000e+00
      vertex 1.179211e+01 1.301431e+01 3.500000e+00
    endloop
  endfacet
  facet normal 0.000000e+00 0.000000e+00 1.000000e+00
    outer loop
      vertex 6.500000e+00 1.450000e+01 3.500000e+00
      vertex 1.164412e+01 1.231808e+01 3.500000e+00
      vertex 1.164412e+01 1.268192e+01 3.500000e+00
    endloop
  endfacet
  facet normal 0.000000e+00 0.000000e+00 1.000000e+00
    outer loop
      vertex 6.500000e+00 1.450000e+01 3.500000e+00
      vertex 1.179211e+01 1.198569e+01 3.500000e+00
      vertex 1.164412e+01 1.231808e+01 3.500000e+00
    endloop
  endfacet
  facet normal 0.000000e+00 0.000000e+00 1.000000e+00
    outer loop
      vertex 6.500000e+00 1.450000e+01 3.500000e+00
      vertex 1.450000e+01 6.500000e+00 3.500000e+00
      vertex 1.179211e+01 1.198569e+01 3.500000e+00
    endloop
  endfacet
  facet normal 0.000000e+00 0.000000e+00 1.000000e+00
    outer loop
      vertex 1.179211e+01 1.198569e+01 3.500000e+00
      vertex 1.450000e+01 6.500000e+00 3.500000e+00
      vertex 1.206250e+01 1.174223e+01 3.500000e+00
    endloop
  endfacet
  facet normal 0.000000e+00 0.000000e+00 1.000000e+00
    outer loop
      vertex 1.206250e+01 1.174223e+01 3.500000e+00
      vertex 1.450000e+01 6.500000e+00 3.500000e+00
      vertex 1.240854e+01 1.162979e+01 3.500000e+00
    endloop
  endfacet
  facet normal 0.000000e+00 0.000000e+00 1.000000e+00
    outer loop
      vertex 1.240854e+01 1.162979e+01 3.500000e+00
      vertex 1.450000e+01 6.500000e+00 3.500000e+00
      vertex 1.277039e+01 1.166783e+01 3.500000e+00
    endloop
  endfacet
  facet normal 0.000000e+00 0.000000e+00 1.000000e+00
    outer loop
      vertex 1.277039e+01 1.166783e+01 3.500000e+00
      vertex 1.450000e+01 6.500000e+00 3.500000e+00
      vertex 1.308549e+01 1.184975e+01 3.500000e+00
    endloop
  endfacet
  facet normal 0.000000e+00 0.000000e+00 1.000000e+00
    outer loop
      vertex 1.308549e+01 1.184975e+01 3.500000e+00
      vertex 1.450000e+01 6.500000e+00 3.500000e+00
      vertex 1.329935e+01 1.214411e+01 3.500000e+00
    endloop
  endfacet
  facet normal 0.000000e+00 0.000000e+00 1.000000e+00
    outer loop
      vertex 1.329935e+01 1.214411e+01 3.500000e+00
      vertex 1.450000e+01 6.500000e+00 3.500000e+00
      vertex 1.700000e+01 1.700000e+01 3.500000e+00
    endloop
  endfacet
  facet normal 0.000000e+00 0.000000e+00 1.000000e+00
    outer loop
      vertex 1.337500e+01 1.250000e+01 3.500000e+00
      vertex 1.700000e+01 1.700000e+01 3.500000e+00
      vertex 1.329935e+01 1.285589e+01 3.500000e+00
    endloop
  endfacet
  facet normal 0.000000e+00 0.000000e+00 1.000000e+00
    outer loop
      vertex 1.337500e+01 1.250000e+01 3.500000e+00
      vertex 1.329935e+01 1.214411e+01 3.500000e+00
      vertex 1.700000e+01 1.700000e+01 3.500000e+00
    endloop
  endfacet
  facet normal 0.000000e+00 0.000000e+00 1.000000e+00
    outer loop
      vertex 6.500000e+00 -1.450000e+01 3.500000e+00
      vertex 1.450000e+01 -6.500000e+00 3.500000e+00
      vertex -1.450000e+01 6.500000e+00 3.500000e+00
    endloop
  endfacet
  facet normal 0.000000e+00 0.000000e+00 1.000000e+00
    outer loop
      vertex 6.500000e+00 -1.450000e+01 3.500000e+00
      vertex 1.179211e+01 -1.198569e+01 3.500000e+00
      vertex 1.450000e+01 -6.500000e+00 3.500000e+00
    endloop
  endfacet
  facet normal 0.000000e+00 0.000000e+00 1.000000e+00
    outer loop
      vertex 6.500000e+00 -1.450000e+01 3.500000e+00
      vertex 1.164412e+01 -1.231808e+01 3.500000e+00
      vertex 1.179211e+01 -1.198569e+01 3.500000e+00
    endloop
  endfacet
  facet normal 0.000000e+00 0.000000e+00 1.000000e+00
    outer loop
      vertex 6.500000e+00 -1.450000e+01 3.500000e+00
      vertex 1.164412e+01 -1.268192e+01 3.500000e+00
      vertex 1.164412e+01 -1.231808e+01 3.500000e+00
    endloop
  endfacet
  facet normal 0.000000e+00 0.000000e+00 1.000000e+00
    outer loop
      vertex 6.500000e+00 -1.450000e+01 3.500000e+00
      vertex 1.179211e+01 -1.301431e+01 3.500000e+00
      vertex 1.164412e+01 -1.268192e+01 3.500000e+00
    endloop
  endfacet
  facet normal 0.000000e+00 0.000000e+00 1.000000e+00
    outer loop
      vertex 6.500000e+00 -1.450000e+01 3.500000e+00
      vertex 1.206250e+01 -1.325777e+01 3.500000e+00
      vertex 1.179211e+01 -1.301431e+01 3.500000e+00
    endloop
  endfacet
  facet normal 0.000000e+00 0.000000e+00 1.000000e+00
    outer loop
      vertex 6.500000e+00 -1.450000e+01 3.500000e+00
      vertex 1.240854e+01 -1.337021e+01 3.500000e+00
      vertex 1.206250e+01 -1.325777e+01 3.500000e+00
    endloop
  endfacet
  facet normal 0.000000e+00 0.000000e+00 1.000000e+00
    outer loop
      vertex 6.500000e+00 -1.450000e+01 3.500000e+00
      vertex 1.700000e+01 -1.700000e+01 3.500000e+00
      vertex 1.240854e+01 -1.337021e+01 3.500000e+00
    endloop
  endfacet
  facet normal 0.000000e+00 0.000000e+00 1.000000e+00
    outer loop
      vertex 1.240854e+01 -1.337021e+01 3.500000e+00
      vertex 1.700000e+01 -1.700000e+01 3.500000e+00
      vertex 1.277039e+01 -1.333217e+01 3.500000e+00
    endloop
  endfacet
  facet normal 0.000000e+00 0.000000e+00 1.000000e+00
    outer loop
      vertex 1.277039e+01 -1.333217e+01 3.500000e+00
      vertex 1.700000e+01 -1.700000e+01 3.500000e+00
      vertex 1.308549e+01 -1.315025e+01 3.500000e+00
    endloop
  endfacet
  facet normal 0.000000e+00 0.000000e+00 1.000000e+00
    outer loop
      vertex 1.308549e+01 -1.315025e+01 3.500000e+00
      vertex 1.700000e+01 -1.700000e+01 3.500000e+00
      vertex 1.329935e+01 -1.285589e+01 3.500000e+00
    endloop
  endfacet
  facet normal 0.000000e+00 0.000000e+00 1.000000e+00
    outer loop
      vertex 1.329935e+01 -1.285589e+01 3.500000e+00
      vertex 1.700000e+01 -1.700000e+01 3.500000e+00
      vertex 1.337500e+01 -1.250000e+01 3.500000e+00
    endloop
  endfacet
  facet normal 0.000000e+00 0.000000e+00 1.000000e+00
    outer loop
      vertex 1.337500e+01 -1.250000e+01 3.500000e+00
      vertex 1.700000e+01 -1.700000e+01 3.500000e+00
      vertex 1.329935e+01 -1.214411e+01 3.500000e+00
    endloop
  endfacet
  facet normal 0.000000e+00 0.000000e+00 1.000000e+00
    outer loop
      vertex 1.329935e+01 -1.214411e+01 3.500000e+00
      vertex 1.700000e+01 -1.700000e+01 3.500000e+00
      vertex 1.450000e+01 -6.500000e+00 3.500000e+00
    endloop
  endfacet
  facet normal 0.000000e+00 0.000000e+00 1.000000e+00
    outer loop
      vertex 1.308549e+01 -1.184975e+01 3.500000e+00
      vertex 1.450000e+01 -6.500000e+00 3.500000e+00
      vertex 1.277039e+01 -1.166783e+01 3.500000e+00
    endloop
  endfacet
  facet normal 0.000000e+00 0.000000e+00 1.000000e+00
    outer loop
      vertex 1.308549e+01 -1.184975e+01 3.500000e+00
      vertex 1.329935e+01 -1.214411e+01 3.500000e+00
      vertex 1.450000e+01 -6.500000e+00 3.500000e+00
    endloop
  endfacet
  facet normal 0.000000e+00 0.000000e+00 1.000000e+00
    outer loop
      vertex -1.222961e+01 -1.333217e+01 3.500000e+00
      vertex -1.259146e+01 -1.337021e+01 3.500000e+00
      vertex -1.700000e+01 -1.700000e+01 3.500000e+00
    endloop
  endfacet
  facet normal 0.000000e+00 0.000000e+00 1.000000e+00
    outer loop
      vertex -1.700000e+01 -1.700000e+01 3.500000e+00
      vertex -1.259146e+01 -1.337021e+01 3.500000e+00
      vertex -1.293750e+01 -1.325777e+01 3.500000e+00
    endloop
  endfacet
  facet normal 0.000000e+00 0.000000e+00 1.000000e+00
    outer loop
      vertex -1.320789e+01 -1.301431e+01 3.500000e+00
      vertex -1.700000e+01 -1.700000e+01 3.500000e+00
      vertex -1.293750e+01 -1.325777e+01 3.500000e+00
    endloop
  endfacet
  facet normal 0.000000e+00 0.000000e+00 1.000000e+00
    outer loop
      vertex 1.179211e+01 -1.198569e+01 3.500000e+00
      vertex 1.206250e+01 -1.174223e+01 3.500000e+00
      vertex 1.450000e+01 -6.500000e+00 3.500000e+00
    endloop
  endfacet
  facet normal 0.000000e+00 0.000000e+00 1.000000e+00
    outer loop
      vertex 1.450000e+01 -6.500000e+00 3.500000e+00
      vertex 1.206250e+01 -1.174223e+01 3.500000e+00
      vertex 1.240854e+01 -1.162979e+01 3.500000e+00
    endloop
  endfacet
  facet normal 0.000000e+00 0.000000e+00 1.000000e+00
    outer loop
      vertex 1.277039e+01 -1.166783e+01 3.500000e+00
      vertex 1.450000e+01 -6.500000e+00 3.500000e+00
      vertex 1.240854e+01 -1.162979e+01 3.500000e+00
    endloop
  endfacet
  facet normal 0.000000e+00 0.000000e+00 1.000000e+00
    outer loop
      vertex 1.240854e+01 1.337021e+01 3.500000e+00
      vertex 1.277039e+01 1.333217e+01 3.500000e+00
      vertex 1.700000e+01 1.700000e+01 3.500000e+00
    endloop
  endfacet
  facet normal 0.000000e+00 0.000000e+00 1.000000e+00
    outer loop
      vertex 1.700000e+01 1.700000e+01 3.500000e+00
      vertex 1.277039e+01 1.333217e+01 3.500000e+00
      vertex 1.308549e+01 1.315025e+01 3.500000e+00
    endloop
  endfacet
  facet normal 0.000000e+00 0.000000e+00 1.000000e+00
    outer loop
      vertex 1.329935e+01 1.285589e+01 3.500000e+00
      vertex 1.700000e+01 1.700000e+01 3.500000e+00
      vertex 1.308549e+01 1.315025e+01 3.500000e+00
    endloop
  endfacet
  facet normal 0.000000e+00 0.000000e+00 1.000000e+00
    outer loop
      vertex -1.170065e+01 1.285589e+01 3.500000e+00
      vertex -1.162500e+01 1.250000e+01 3.500000e+00
      vertex -6.500000e+00 1.450000e+01 3.500000e+00
    endloop
  endfacet
  facet normal 0.000000e+00 0.000000e+00 1.000000e+00
    outer loop
      vertex -1.191451e+01 1.315025e+01 3.500000e+00
      vertex -6.500000e+00 1.450000e+01 3.500000e+00
      vertex -1.222961e+01 1.333217e+01 3.500000e+00
    endloop
  endfacet
  facet normal 0.000000e+00 0.000000e+00 1.000000e+00
    outer loop
      vertex -1.191451e+01 1.315025e+01 3.500000e+00
      vertex -1.170065e+01 1.285589e+01 3.500000e+00
      vertex -6.500000e+00 1.450000e+01 3.500000e+00
    endloop
  endfacet
  facet normal 0.000000e+00 0.000000e+00 1.000000e+00
    outer loop
      vertex -1.162500e+01 1.250000e+01 3.500000e+00
      vertex -1.170065e+01 1.214411e+01 3.500000e+00
      vertex -6.500000e+00 1.450000e+01 3.500000e+00
    endloop
  endfacet
  facet normal 0.000000e+00 0.000000e+00 1.000000e+00
    outer loop
      vertex -6.500000e+00 1.450000e+01 3.500000e+00
      vertex -1.170065e+01 1.214411e+01 3.500000e+00
      vertex -1.191451e+01 1.184975e+01 3.500000e+00
    endloop
  endfacet
  facet normal 0.000000e+00 0.000000e+00 1.000000e+00
    outer loop
      vertex -1.450000e+01 6.500000e+00 3.500000e+00
      vertex -1.191451e+01 1.184975e+01 3.500000e+00
      vertex -1.222961e+01 1.166783e+01 3.500000e+00
    endloop
  endfacet
  facet normal 0.000000e+00 0.000000e+00 1.000000e+00
    outer loop
      vertex -1.259146e+01 1.162979e+01 3.500000e+00
      vertex -1.450000e+01 6.500000e+00 3.500000e+00
      vertex -1.222961e+01 1.166783e+01 3.500000e+00
    endloop
  endfacet
  facet normal 0.000000e+00 0.000000e+00 1.000000e+00
    outer loop
      vertex -1.259146e+01 1.162979e+01 3.500000e+00
      vertex -1.293750e+01 1.174223e+01 3.500000e+00
      vertex -1.450000e+01 6.500000e+00 3.500000e+00
    endloop
  endfacet
  facet normal 0.000000e+00 0.000000e+00 1.000000e+00
    outer loop
      vertex -1.450000e+01 6.500000e+00 3.500000e+00
      vertex -1.293750e+01 1.174223e+01 3.500000e+00
      vertex -1.320789e+01 1.198569e+01 3.500000e+00
    endloop
  endfacet
  facet normal 0.000000e+00 0.000000e+00 1.000000e+00
    outer loop
      vertex -1.335588e+01 1.231808e+01 3.500000e+00
      vertex -1.450000e+01 6.500000e+00 3.500000e+00
      vertex -1.320789e+01 1.198569e+01 3.500000e+00
    endloop
  endfacet
  facet normal 0.000000e+00 0.000000e+00 1.000000e+00
    outer loop
      vertex -6.500000e+00 1.450000e+01 3.500000e+00
      vertex -1.191451e+01 1.184975e+01 3.500000e+00
      vertex -1.450000e+01 6.500000e+00 3.500000e+00
    endloop
  endfacet
  facet normal 0.000000e+00 0.000000e+00 1.000000e+00
    outer loop
      vertex 1.450000e+01 -6.500000e+00 3.500000e+00
      vertex -6.500000e+00 1.450000e+01 3.500000e+00
      vertex -1.450000e+01 6.500000e+00 3.500000e+00
    endloop
  endfacet
  facet normal 0.000000e+00 0.000000e+00 1.000000e+00
    outer loop
      vertex 1.700000e+01 1.700000e+01 3.500000e+00
      vertex 1.450000e+01 6.500000e+00 3.500000e+00
      vertex 1.700000e+01 -1.700000e+01 3.500000e+00
    endloop
  endfacet
  facet normal 0.000000e+00 0.000000e+00 1.000000e+00
    outer loop
      vertex 1.700000e+01 -1.700000e+01 3.500000e+00
      vertex 1.450000e+01 6.500000e+00 3.500000e+00
      vertex 1.450000e+01 -6.500000e+00 3.500000e+00
    endloop
  endfacet
  facet normal -1.477734e-16 7.071068e-01 -7.071068e-01
    outer loop
      vertex -1.700000e+01 1.700000e+01 3.500000e+00
      vertex 1.700000e+01 1.700000e+01 3.500000e+00
      vertex -1.550000e+01 1.550000e+01 2.000000e+00
    endloop
  endfacet
  facet normal 0.000000e+00 7.071068e-01 -7.071068e-01
    outer loop
      vertex -1.550000e+01 1.550000e+01 2.000000e+00
      vertex 1.700000e+01 1.700000e+01 3.500000e+00
      vertex 1.550000e+01 1.550000e+01 2.000000e+00
    endloop
  endfacet
  facet normal -7.071068e-01 -2.955468e-16 -7.071068e-01
    outer loop
      vertex -1.700000e+01 1.700000e+01 3.500000e+00
      vertex -1.550000e+01 1.550000e+01 2.000000e+00
      vertex -1.700000e+01 -1.700000e+01 3.500000e+00
    endloop
  endfacet
  facet normal -7.071068e-01 -1.620741e-16 -7.071068e-01
    outer loop
      vertex -1.700000e+01 -1.700000e+01 3.500000e+00
      vertex -1.550000e+01 1.550000e+01 2.000000e+00
      vertex -1.550000e+01 -1.550000e+01 2.000000e+00
    endloop
  endfacet
  facet normal 7.071068e-01 2.164890e-16 -7.071068e-01
    outer loop
      vertex 1.700000e+01 1.700000e+01 3.500000e+00
      vertex 1.700000e+01 -1.700000e+01 3.500000e+00
      vertex 1.550000e+01 1.550000e+01 2.000000e+00
    endloop
  endfacet
  facet normal 7.071068e-01 4.727160e-17 -7.071068e-01
    outer loop
      vertex 1.550000e+01 1.550000e+01 2.000000e+00
      vertex 1.700000e+01 -1.700000e+01 3.500000e+00
      vertex 1.550000e+01 -1.550000e+01 2.000000e+00
    endloop
  endfacet
  facet normal 9.235838e-17 -7.071068e-01 -7.071068e-01
    outer loop
      vertex 1.700000e+01 -1.700000e+01 3.500000e+00
      vertex -1.700000e+01 -1.700000e+01 3.500000e+00
      vertex 1.550000e+01 -1.550000e+01 2.000000e+00
    endloop
  endfacet
  facet normal 8.779011e-17 -7.071068e-01 -7.071068e-01
    outer loop
      vertex 1.550000e+01 -1.550000e+01 2.000000e+00
      vertex -1.700000e+01 -1.700000e+01 3.500000e+00
      vertex -1.550000e+01 -1.550000e+01 2.000000e+00
    endloop
  endfacet
  facet normal 0.000000e+00 7.071068e-01 7.071068e-01
    outer loop
      vertex -1.550000e+01 1.550000e+01 1.500000e+00
      vertex 1.550000e+01 1.550000e+01 1.500000e+00
      vertex -1.700000e+01 1.700000e+01 0.000000e+00
    endloop
  endfacet
  facet normal -1.477734e-16 7.071068e-01 7.071068e-01
    outer loop
      vertex -1.700000e+01 1.700000e+01 0.000000e+00
      vertex 1.550000e+01 1.550000e+01 1.500000e+00
      vertex 1.700000e+01 1.700000e+01 0.000000e+00
    endloop
  endfacet
  facet normal -7.071068e-01 -1.620741e-16 7.071068e-01
    outer loop
      vertex -1.550000e+01 -1.550000e+01 1.500000e+00
      vertex -1.550000e+01 1.550000e+01 1.500000e+00
      vertex -1.700000e+01 -1.700000e+01 0.000000e+00
    endloop
  endfacet
  facet normal -7.071068e-01 -2.955468e-16 7.071068e-01
    outer loop
      vertex -1.700000e+01 -1.700000e+01 0.000000e+00
      vertex -1.550000e+01 1.550000e+01 1.500000e+00
      vertex -1.700000e+01 1.700000e+01 0.000000e+00
    endloop
  endfacet
  facet normal 9.116666e-17 -7.071068e-01 7.071068e-01
    outer loop
      vertex 1.550000e+01 -1.550000e+01 1.500000e+00
      vertex -1.550000e+01 -1.550000e+01 1.500000e+00
      vertex 1.700000e+01 -1.700000e+01 0.000000e+00
    endloop
  endfacet
  facet normal 9.235838e-17 -7.071068e-01 7.071068e-01
    outer loop
      vertex 1.700000e+01 -1.700000e+01 0.000000e+00
      vertex -1.550000e+01 -1.550000e+01 1.500000e+00
      vertex -1.700000e+01 -1.700000e+01 0.000000e+00
    endloop
  endfacet
  facet normal 7.071068e-01 4.727160e-17 7.071068e-01
    outer loop
      vertex 1.550000e+01 -1.550000e+01 1.500000e+00
      vertex 1.700000e+01 -1.700000e+01 0.000000e+00
      vertex 1.550000e+01 1.550000e+01 1.500000e+00
    endloop
  endfacet
  facet normal 7.071068e-01 1.847168e-16 7.071068e-01
    outer loop
      vertex 1.550000e+01 1.550000e+01 1.500000e+00
      vertex 1.700000e+01 -1.700000e+01 0.000000e+00
      vertex 1.700000e+01 1.700000e+01 0.000000e+00
    endloop
  endfacet
  facet normal 1.000000e+00 2.732857e-16 -1.015061e-15
    outer loop
      vertex -1.450000e+01 -6.500000e+00 3.500000e+00
      vertex -1.450000e+01 -6.500000e+00 0.000000e+00
      vertex -1.450000e+01 6.500000e+00 3.500000e+00
    endloop
  endfacet
  facet normal 1.000000e+00 5.465714e-16 -2.030122e-15
    outer loop
      vertex -1.450000e+01 6.500000e+00 3.500000e+00
      vertex -1.450000e+01 -6.500000e+00 0.000000e+00
      vertex -1.450000e+01 6.500000e+00 0.000000e+00
    endloop
  endfacet
  facet normal 0.000000e+00 -1.000000e+00 0.000000e+00
    outer loop
      vertex 6.500000e+00 1.450000e+01 0.000000e+00
      vertex 6.500000e+00 1.450000e+01 3.500000e+00
      vertex -6.500000e+00 1.450000e+01 0.000000e+00
    endloop
  endfacet
  facet normal 0.000000e+00 -1.000000e+00 0.000000e+00
    outer loop
      vertex -6.500000e+00 1.450000e+01 0.000000e+00
      vertex 6.500000e+00 1.450000e+01 3.500000e+00
      vertex -6.500000e+00 1.450000e+01 3.500000e+00
    endloop
  endfacet
  facet normal -7.071068e-01 -7.071068e-01 -0.000000e+00
    outer loop
      vertex 6.500000e+00 1.450000e+01 3.500000e+00
      vertex 6.500000e+00 1.450000e+01 0.000000e+00
      vertex 1.450000e+01 6.500000e+00 3.500000e+00
    endloop
  endfacet
  facet normal -7.071068e-01 -7.071068e-01 0.000000e+00
    outer loop
      vertex 1.450000e+01 6.500000e+00 3.500000e+00
      vertex 6.500000e+00 1.450000e+01 0.000000e+00
      vertex 1.450000e+01 6.500000e+00 0.000000e+00
    endloop
  endfacet
  facet normal -1.000000e+00 0.000000e+00 0.000000e+00
    outer loop
      vertex 1.450000e+01 -6.500000e+00 0.000000e+00
      vertex 1.450000e+01 -6.500000e+00 3.500000e+00
      vertex 1.450000e+01 6.500000e+00 0.000000e+00
    endloop
  endfacet
  facet normal -1.000000e+00 0.000000e+00 0.000000e+00
    outer loop
      vertex 1.450000e+01 6.500000e+00 0.000000e+00
      vertex 1.450000e+01 -6.500000e+00 3.500000e+00
      vertex 1.450000e+01 6.500000e+00 3.500000e+00
    endloop
  endfacet
  facet normal -1.366428e-16 1.000000e+00 0.000000e+00
    outer loop
      vertex -6.500000e+00 -1.450000e+01 0.000000e+00
      vertex -6.500000e+00 -1.450000e+01 3.500000e+00
      vertex 6.500000e+00 -1.450000e+01 0.000000e+00
    endloop
  endfacet
  facet normal -1.366428e-16 1.000000e+00 0.000000e+00
    outer loop
      vertex 6.500000e+00 -1.450000e+01 0.000000e+00
      vertex -6.500000e+00 -1.450000e+01 3.500000e+00
      vertex 6.500000e+00 -1.450000e+01 3.500000e+00
    endloop
  endfacet
  facet normal 7.071068e-01 7.071068e-01 0.000000e+00
    outer loop
      vertex -6.500000e+00 -1.450000e+01 3.500000e+00
      vertex -6.500000e+00 -1.450000e+01 0.000000e+00
      vertex -1.450000e+01 -6.500000e+00 3.500000e+00
    endloop
  endfacet
  facet normal 7.071068e-01 7.071068e-01 -7.177566e-16
    outer loop
      vertex -1.450000e+01 -6.500000e+00 3.500000e+00
      vertex -6.500000e+00 -1.450000e+01 0.000000e+00
      vertex -1.450000e+01 -6.500000e+00 0.000000e+00
    endloop
  endfacet
  facet normal -9.781476e-01 2.079117e-01 0.000000e+00
    outer loop
      vertex -1.170065e+01 1.214411e+01 0.000000e+00
      vertex -1.170065e+01 1.214411e+01 3.500000e+00
      vertex -1.162500e+01 1.250000e+01 0.000000e+00
    endloop
  endfacet
  facet normal -8.090170e-01 5.877852e-01 0.000000e+00
    outer loop
      vertex -1.170065e+01 1.214411e+01 0.000000e+00
      vertex -1.191451e+01 1.184975e+01 3.500000e+00
      vertex -1.170065e+01 1.214411e+01 3.500000e+00
    endloop
  endfacet
  facet normal -8.090170e-01 5.877852e-01 0.000000e+00
    outer loop
      vertex -1.170065e+01 1.214411e+01 0.000000e+00
      vertex -1.191451e+01 1.184975e+01 0.000000e+00
      vertex -1.191451e+01 1.184975e+01 3.500000e+00
    endloop
  endfacet
  facet normal -5.000000e-01 8.660254e-01 0.000000e+00
    outer loop
      vertex -1.191451e+01 1.184975e+01 3.500000e+00
      vertex -1.191451e+01 1.184975e+01 0.000000e+00
      vertex -1.222961e+01 1.166783e+01 3.500000e+00
    endloop
  endfacet
  facet normal -5.000000e-01 8.660254e-01 0.000000e+00
    outer loop
      vertex -1.222961e+01 1.166783e+01 3.500000e+00
      vertex -1.191451e+01 1.184975e+01 0.000000e+00
      vertex -1.222961e+01 1.166783e+01 0.000000e+00
    endloop
  endfacet
  facet normal -1.045285e-01 9.945219e-01 1.062527e-16
    outer loop
      vertex -1.259146e+01 1.162979e+01 3.500000e+00
      vertex -1.222961e+01 1.166783e+01 0.000000e+00
      vertex -1.259146e+01 1.162979e+01 0.000000e+00
    endloop
  endfacet
  facet normal 3.090170e-01 9.510565e-01 0.000000e+00
    outer loop
      vertex -1.293750e+01 1.174223e+01 3.500000e+00
      vertex -1.259146e+01 1.162979e+01 0.000000e+00
      vertex -1.293750e+01 1.174223e+01 0.000000e+00
    endloop
  endfacet
  facet normal 6.691306e-01 7.431448e-01 0.000000e+00
    outer loop
      vertex -1.320789e+01 1.198569e+01 3.500000e+00
      vertex -1.293750e+01 1.174223e+01 0.000000e+00
      vertex -1.320789e+01 1.198569e+01 0.000000e+00
    endloop
  endfacet
  facet normal 9.135454e-01 4.067366e-01 0.000000e+00
    outer loop
      vertex -1.335588e+01 1.231808e+01 3.500000e+00
      vertex -1.320789e+01 1.198569e+01 0.000000e+00
      vertex -1.335588e+01 1.231808e+01 0.000000e+00
    endloop
  endfacet
  facet normal 1.000000e+00 0.000000e+00 0.000000e+00
    outer loop
      vertex -1.335588e+01 1.268192e+01 3.500000e+00
      vertex -1.335588e+01 1.231808e+01 0.000000e+00
      vertex -1.335588e+01 1.268192e+01 0.000000e+00
    endloop
  endfacet
  facet normal 9.135454e-01 -4.067366e-01 0.000000e+00
    outer loop
      vertex -1.320789e+01 1.301431e+01 3.500000e+00
      vertex -1.335588e+01 1.268192e+01 0.000000e+00
      vertex -1.320789e+01 1.301431e+01 0.000000e+00
    endloop
  endfacet
  facet normal 6.691306e-01 -7.431448e-01 0.000000e+00
    outer loop
      vertex -1.293750e+01 1.325777e+01 3.500000e+00
      vertex -1.320789e+01 1.301431e+01 0.000000e+00
      vertex -1.293750e+01 1.325777e+01 0.000000e+00
    endloop
  endfacet
  facet normal 3.090170e-01 -9.510565e-01 3.160336e-16
    outer loop
      vertex -1.259146e+01 1.337021e+01 3.500000e+00
      vertex -1.293750e+01 1.325777e+01 0.000000e+00
      vertex -1.259146e+01 1.337021e+01 0.000000e+00
    endloop
  endfacet
  facet normal -1.045285e-01 -9.945219e-01 0.000000e+00
    outer loop
      vertex -1.222961e+01 1.333217e+01 3.500000e+00
      vertex -1.259146e+01 1.337021e+01 0.000000e+00
      vertex -1.222961e+01 1.333217e+01 0.000000e+00
    endloop
  endfacet
  facet normal -5.000000e-01 -8.660254e-01 0.000000e+00
    outer loop
      vertex -1.191451e+01 1.315025e+01 3.500000e+00
      vertex -1.222961e+01 1.333217e+01 0.000000e+00
      vertex -1.191451e+01 1.315025e+01 0.000000e+00
    endloop
  endfacet
  facet normal -8.090170e-01 -5.877852e-01 0.000000e+00
    outer loop
      vertex -1.170065e+01 1.285589e+01 3.500000e+00
      vertex -1.191451e+01 1.315025e+01 0.000000e+00
      vertex -1.170065e+01 1.285589e+01 0.000000e+00
    endloop
  endfacet
  facet normal -9.781476e-01 -2.079117e-01 0.000000e+00
    outer loop
      vertex -1.162500e+01 1.250000e+01 3.500000e+00
      vertex -1.170065e+01 1.285589e+01 0.000000e+00
      vertex -1.162500e+01 1.250000e+01 0.000000e+00
    endloop
  endfacet
  facet normal -9.781476e-01 2.079117e-01 0.000000e+00
    outer loop
      vertex -1.170065e+01 1.214411e+01 3.500000e+00
      vertex -1.162500e+01 1.250000e+01 3.500000e+00
      vertex -1.162500e+01 1.250000e+01 0.000000e+00
    endloop
  endfacet
  facet normal -1.045285e-01 9.945219e-01 0.000000e+00
    outer loop
      vertex -1.222961e+01 1.166783e+01 3.500000e+00
      vertex -1.222961e+01 1.166783e+01 0.000000e+00
      vertex -1.259146e+01 1.162979e+01 3.500000e+00
    endloop
  endfacet
  facet normal 3.090170e-01 9.510565e-01 -3.136711e-16
    outer loop
      vertex -1.259146e+01 1.162979e+01 3.500000e+00
      vertex -1.259146e+01 1.162979e+01 0.000000e+00
      vertex -1.293750e+01 1.174223e+01 3.500000e+00
    endloop
  endfacet
  facet normal 6.691306e-01 7.431448e-01 0.000000e+00
    outer loop
      vertex -1.293750e+01 1.174223e+01 3.500000e+00
      vertex -1.293750e+01 1.174223e+01 0.000000e+00
      vertex -1.320789e+01 1.198569e+01 3.500000e+00
    endloop
  endfacet
  facet normal 9.135454e-01 4.067366e-01 0.000000e+00
    outer loop
      vertex -1.320789e+01 1.198569e+01 3.500000e+00
      vertex -1.320789e+01 1.198569e+01 0.000000e+00
      vertex -1.335588e+01 1.231808e+01 3.500000e+00
    endloop
  endfacet
  facet normal 1.000000e+00 0.000000e+00 0.000000e+00
    outer loop
      vertex -1.335588e+01 1.231808e+01 3.500000e+00
      vertex -1.335588e+01 1.231808e+01 0.000000e+00
      vertex -1.335588e+01 1.268192e+01 3.500000e+00
    endloop
  endfacet
  facet normal 9.135454e-01 -4.067366e-01 0.000000e+00
    outer loop
      vertex -1.335588e+01 1.268192e+01 3.500000e+00
      vertex -1.335588e+01 1.268192e+01 0.000000e+00
      vertex -1.320789e+01 1.301431e+01 3.500000e+00
    endloop
  endfacet
  facet normal 6.691306e-01 -7.431448e-01 0.000000e+00
    outer loop
      vertex -1.320789e+01 1.301431e+01 3.500000e+00
      vertex -1.320789e+01 1.301431e+01 0.000000e+00
      vertex -1.293750e+01 1.325777e+01 3.500000e+00
    endloop
  endfacet
  facet normal 3.090170e-01 -9.510565e-01 0.000000e+00
    outer loop
      vertex -1.293750e+01 1.325777e+01 3.500000e+00
      vertex -1.293750e+01 1.325777e+01 0.000000e+00
      vertex -1.259146e+01 1.337021e+01 3.500000e+00
    endloop
  endfacet
  facet normal -1.045285e-01 -9.945219e-01 -1.061028e-16
    outer loop
      vertex -1.259146e+01 1.337021e+01 3.500000e+00
      vertex -1.259146e+01 1.337021e+01 0.000000e+00
      vertex -1.222961e+01 1.333217e+01 3.500000e+00
    endloop
  endfacet
  facet normal -5.000000e-01 -8.660254e-01 -0.000000e+00
    outer loop
      vertex -1.222961e+01 1.333217e+01 3.500000e+00
      vertex -1.222961e+01 1.333217e+01 0.000000e+00
      vertex -1.191451e+01 1.315025e+01 3.500000e+00
    endloop
  endfacet
  facet normal -8.090170e-01 -5.877852e-01 -0.000000e+00
    outer loop
      vertex -1.191451e+01 1.315025e+01 3.500000e+00
      vertex -1.191451e+01 1.315025e+01 0.000000e+00
      vertex -1.170065e+01 1.285589e+01 3.500000e+00
    endloop
  endfacet
  facet normal -9.781476e-01 -2.079117e-01 -0.000000e+00
    outer loop
      vertex -1.170065e+01 1.285589e+01 3.500000e+00
      vertex -1.170065e+01 1.285589e+01 0.000000e+00
      vertex -1.162500e+01 1.250000e+01 3.500000e+00
    endloop
  endfacet
  facet normal -9.781476e-01 2.079117e-01 0.000000e+00
    outer loop
      vertex 1.329935e+01 1.214411e+01 0.000000e+00
      vertex 1.329935e+01 1.214411e+01 3.500000e+00
      vertex 1.337500e+01 1.250000e+01 0.000000e+00
    endloop
  endfacet
  facet normal -8.090170e-01 5.877852e-01 0.000000e+00
    outer loop
      vertex 1.329935e+01 1.214411e+01 0.000000e+00
      vertex 1.308549e+01 1.184975e+01 3.500000e+00
      vertex 1.329935e+01 1.214411e+01 3.500000e+00
    endloop
  endfacet
  facet normal -8.090170e-01 5.877852e-01 2.053004e-16
    outer loop
      vertex 1.329935e+01 1.214411e+01 0.000000e+00
      vertex 1.308549e+01 1.184975e+01 0.000000e+00
      vertex 1.308549e+01 1.184975e+01 3.500000e+00
    endloop
  endfacet
  facet normal -5.000000e-01 8.660254e-01 1.268826e-16
    outer loop
      vertex 1.308549e+01 1.184975e+01 3.500000e+00
      vertex 1.308549e+01 1.184975e+01 0.000000e+00
      vertex 1.277039e+01 1.166783e+01 3.500000e+00
    endloop
  endfacet
  facet normal -5.000000e-01 8.660254e-01 0.000000e+00
    outer loop
      vertex 1.277039e+01 1.166783e+01 3.500000e+00
      vertex 1.308549e+01 1.184975e+01 0.000000e+00
      vertex 1.277039e+01 1.166783e+01 0.000000e+00
    endloop
  endfacet
  facet normal -1.045285e-01 9.945219e-01 0.000000e+00
    outer loop
      vertex 1.240854e+01 1.162979e+01 3.500000e+00
      vertex 1.277039e+01 1.166783e+01 0.000000e+00
      vertex 1.240854e+01 1.162979e+01 0.000000e+00
    endloop
  endfacet
  facet normal 3.090170e-01 9.510565e-01 0.000000e+00
    outer loop
      vertex 1.206250e+01 1.174223e+01 3.500000e+00
      vertex 1.240854e+01 1.162979e+01 0.000000e+00
      vertex 1.206250e+01 1.174223e+01 0.000000e+00
    endloop
  endfacet
  facet normal 6.691306e-01 7.431448e-01 0.000000e+00
    outer loop
      vertex 1.179211e+01 1.198569e+01 3.500000e+00
      vertex 1.206250e+01 1.174223e+01 0.000000e+00
      vertex 1.179211e+01 1.198569e+01 0.000000e+00
    endloop
  endfacet
  facet normal 9.135454e-01 4.067366e-01 0.000000e+00
    outer loop
      vertex 1.164412e+01 1.231808e+01 3.500000e+00
      vertex 1.179211e+01 1.198569e+01 0.000000e+00
      vertex 1.164412e+01 1.231808e+01 0.000000e+00
    endloop
  endfacet
  facet normal 1.000000e+00 0.000000e+00 0.000000e+00
    outer loop
      vertex 1.164412e+01 1.268192e+01 3.500000e+00
      vertex 1.164412e+01 1.231808e+01 0.000000e+00
      vertex 1.164412e+01 1.268192e+01 0.000000e+00
    endloop
  endfacet
  facet normal 9.135454e-01 -4.067366e-01 0.000000e+00
    outer loop
      vertex 1.179211e+01 1.301431e+01 3.500000e+00
      vertex 1.164412e+01 1.268192e+01 0.000000e+00
      vertex 1.179211e+01 1.301431e+01 0.000000e+00
    endloop
  endfacet
  facet normal 6.691306e-01 -7.431448e-01 0.000000e+00
    outer loop
      vertex 1.206250e+01 1.325777e+01 3.500000e+00
      vertex 1.179211e+01 1.301431e+01 0.000000e+00
      vertex 1.206250e+01 1.325777e+01 0.000000e+00
    endloop
  endfacet
  facet normal 3.090170e-01 -9.510565e-01 0.000000e+00
    outer loop
      vertex 1.240854e+01 1.337021e+01 3.500000e+00
      vertex 1.206250e+01 1.325777e+01 0.000000e+00
      vertex 1.240854e+01 1.337021e+01 0.000000e+00
    endloop
  endfacet
  facet normal -1.045285e-01 -9.945219e-01 0.000000e+00
    outer loop
      vertex 1.277039e+01 1.333217e+01 3.500000e+00
      vertex 1.240854e+01 1.337021e+01 0.000000e+00
      vertex 1.277039e+01 1.333217e+01 0.000000e+00
    endloop
  endfacet
  facet normal -5.000000e-01 -8.660254e-01 -1.253237e-16
    outer loop
      vertex 1.308549e+01 1.315025e+01 3.500000e+00
      vertex 1.277039e+01 1.333217e+01 0.000000e+00
      vertex 1.308549e+01 1.315025e+01 0.000000e+00
    endloop
  endfacet
  facet normal -8.090170e-01 -5.877852e-01 0.000000e+00
    outer loop
      vertex 1.329935e+01 1.285589e+01 3.500000e+00
      vertex 1.308549e+01 1.315025e+01 0.000000e+00
      vertex 1.329935e+01 1.285589e+01 0.000000e+00
    endloop
  endfacet
  facet normal -9.781476e-01 -2.079117e-01 0.000000e+00
    outer loop
      vertex 1.337500e+01 1.250000e+01 3.500000e+00
      vertex 1.329935e+01 1.285589e+01 0.000000e+00
      vertex 1.337500e+01 1.250000e+01 0.000000e+00
    endloop
  endfacet
  facet normal -9.781476e-01 2.079117e-01 0.000000e+00
    outer loop
      vertex 1.329935e+01 1.214411e+01 3.500000e+00
      vertex 1.337500e+01 1.250000e+01 3.500000e+00
      vertex 1.337500e+01 1.250000e+01 0.000000e+00
    endloop
  endfacet
  facet normal -1.045285e-01 9.945219e-01 0.000000e+00
    outer loop
      vertex 1.277039e+01 1.166783e+01 3.500000e+00
      vertex 1.277039e+01 1.166783e+01 0.000000e+00
      vertex 1.240854e+01 1.162979e+01 3.500000e+00
    endloop
  endfacet
  facet normal 3.090170e-01 9.510565e-01 0.000000e+00
    outer loop
      vertex 1.240854e+01 1.162979e+01 3.500000e+00
      vertex 1.240854e+01 1.162979e+01 0.000000e+00
      vertex 1.206250e+01 1.174223e+01 3.500000e+00
    endloop
  endfacet
  facet normal 6.691306e-01 7.431448e-01 0.000000e+00
    outer loop
      vertex 1.206250e+01 1.174223e+01 3.500000e+00
      vertex 1.206250e+01 1.174223e+01 0.000000e+00
      vertex 1.179211e+01 1.198569e+01 3.500000e+00
    endloop
  endfacet
  facet normal 9.135454e-01 4.067366e-01 0.000000e+00
    outer loop
      vertex 1.179211e+01 1.198569e+01 3.500000e+00
      vertex 1.179211e+01 1.198569e+01 0.000000e+00
      vertex 1.164412e+01 1.231808e+01 3.500000e+00
    endloop
  endfacet
  facet normal 1.000000e+00 0.000000e+00 0.000000e+00
    outer loop
      vertex 1.164412e+01 1.231808e+01 3.500000e+00
      vertex 1.164412e+01 1.231808e+01 0.000000e+00
      vertex 1.164412e+01 1.268192e+01 3.500000e+00
    endloop
  endfacet
  facet normal 9.135454e-01 -4.067366e-01 0.000000e+00
    outer loop
      vertex 1.164412e+01 1.268192e+01 3.500000e+00
      vertex 1.164412e+01 1.268192e+01 0.000000e+00
      vertex 1.179211e+01 1.301431e+01 3.500000e+00
    endloop
  endfacet
  facet normal 6.691306e-01 -7.431448e-01 0.000000e+00
    outer loop
      vertex 1.179211e+01 1.301431e+01 3.500000e+00
      vertex 1.179211e+01 1.301431e+01 0.000000e+00
      vertex 1.206250e+01 1.325777e+01 3.500000e+00
    endloop
  endfacet
  facet normal 3.090170e-01 -9.510565e-01 0.000000e+00
    outer loop
      vertex 1.206250e+01 1.325777e+01 3.500000e+00
      vertex 1.206250e+01 1.325777e+01 0.000000e+00
      vertex 1.240854e+01 1.337021e+01 3.500000e+00
    endloop
  endfacet
  facet normal -1.045285e-01 -9.945219e-01 -0.000000e+00
    outer loop
      vertex 1.240854e+01 1.337021e+01 3.500000e+00
      vertex 1.240854e+01 1.337021e+01 0.000000e+00
      vertex 1.277039e+01 1.333217e+01 3.500000e+00
    endloop
  endfacet
  facet normal -5.000000e-01 -8.660254e-01 -0.000000e+00
    outer loop
      vertex 1.277039e+01 1.333217e+01 3.500000e+00
      vertex 1.277039e+01 1.333217e+01 0.000000e+00
      vertex 1.308549e+01 1.315025e+01 3.500000e+00
    endloop
  endfacet
  facet normal -8.090170e-01 -5.877852e-01 -2.053004e-16
    outer loop
      vertex 1.308549e+01 1.315025e+01 3.500000e+00
      vertex 1.308549e+01 1.315025e+01 0.000000e+00
      vertex 1.329935e+01 1.285589e+01 3.500000e+00
    endloop
  endfacet
  facet normal -9.781476e-01 -2.079117e-01 -0.000000e+00
    outer loop
      vertex 1.329935e+01 1.285589e+01 3.500000e+00
      vertex 1.329935e+01 1.285589e+01 0.000000e+00
      vertex 1.337500e+01 1.250000e+01 3.500000e+00
    endloop
  endfacet
  facet normal -9.781476e-01 2.079117e-01 0.000000e+00
    outer loop
      vertex 1.329935e+01 -1.285589e+01 0.000000e+00
      vertex 1.329935e+01 -1.285589e+01 3.500000e+00
      vertex 1.337500e+01 -1.250000e+01 0.000000e+00
    endloop
  endfacet
  facet normal -8.090170e-01 5.877852e-01 0.000000e+00
    outer loop
      vertex 1.329935e+01 -1.285589e+01 0.000000e+00
      vertex 1.308549e+01 -1.315025e+01 3.500000e+00
      vertex 1.329935e+01 -1.285589e+01 3.500000e+00
    endloop
  endfacet
  facet normal -8.090170e-01 5.877852e-01 2.053004e-16
    outer loop
      vertex 1.329935e+01 -1.285589e+01 0.000000e+00
      vertex 1.308549e+01 -1.315025e+01 0.000000e+00
      vertex 1.308549e+01 -1.315025e+01 3.500000e+00
    endloop
  endfacet
  facet normal -5.000000e-01 8.660254e-01 1.268826e-16
    outer loop
      vertex 1.308549e+01 -1.315025e+01 3.500000e+00
      vertex 1.308549e+01 -1.315025e+01 0.000000e+00
      vertex 1.277039e+01 -1.333217e+01 3.500000e+00
    endloop
  endfacet
  facet normal -5.000000e-01 8.660254e-01 0.000000e+00
    outer loop
      vertex 1.277039e+01 -1.333217e+01 3.500000e+00
      vertex 1.308549e+01 -1.315025e+01 0.000000e+00
      vertex 1.277039e+01 -1.333217e+01 0.000000e+00
    endloop
  endfacet
  facet normal -1.045285e-01 9.945219e-01 0.000000e+00
    outer loop
      vertex 1.240854e+01 -1.337021e+01 3.500000e+00
      vertex 1.277039e+01 -1.333217e+01 0.000000e+00
      vertex 1.240854e+01 -1.337021e+01 0.000000e+00
    endloop
  endfacet
  facet normal 3.090170e-01 9.510565e-01 1.198748e-16
    outer loop
      vertex 1.206250e+01 -1.325777e+01 3.500000e+00
      vertex 1.240854e+01 -1.337021e+01 0.000000e+00
      vertex 1.206250e+01 -1.325777e+01 0.000000e+00
    endloop
  endfacet
  facet normal 6.691306e-01 7.431448e-01 0.000000e+00
    outer loop
      vertex 1.179211e+01 -1.301431e+01 3.500000e+00
      vertex 1.206250e+01 -1.325777e+01 0.000000e+00
      vertex 1.179211e+01 -1.301431e+01 0.000000e+00
    endloop
  endfacet
  facet normal 9.135454e-01 4.067366e-01 1.035282e-16
    outer loop
      vertex 1.164412e+01 -1.268192e+01 3.500000e+00
      vertex 1.179211e+01 -1.301431e+01 0.000000e+00
      vertex 1.164412e+01 -1.268192e+01 0.000000e+00
    endloop
  endfacet
  facet normal 1.000000e+00 0.000000e+00 0.000000e+00
    outer loop
      vertex 1.164412e+01 -1.231808e+01 3.500000e+00
      vertex 1.164412e+01 -1.268192e+01 0.000000e+00
      vertex 1.164412e+01 -1.231808e+01 0.000000e+00
    endloop
  endfacet
  facet normal 9.135454e-01 -4.067366e-01 0.000000e+00
    outer loop
      vertex 1.179211e+01 -1.198569e+01 3.500000e+00
      vertex 1.164412e+01 -1.231808e+01 0.000000e+00
      vertex 1.179211e+01 -1.198569e+01 0.000000e+00
    endloop
  endfacet
  facet normal 6.691306e-01 -7.431448e-01 0.000000e+00
    outer loop
      vertex 1.206250e+01 -1.174223e+01 3.500000e+00
      vertex 1.179211e+01 -1.198569e+01 0.000000e+00
      vertex 1.206250e+01 -1.174223e+01 0.000000e+00
    endloop
  endfacet
  facet normal 3.090170e-01 -9.510565e-01 0.000000e+00
    outer loop
      vertex 1.240854e+01 -1.162979e+01 3.500000e+00
      vertex 1.206250e+01 -1.174223e+01 0.000000e+00
      vertex 1.240854e+01 -1.162979e+01 0.000000e+00
    endloop
  endfacet
  facet normal -1.045285e-01 -9.945219e-01 0.000000e+00
    outer loop
      vertex 1.277039e+01 -1.166783e+01 3.500000e+00
      vertex 1.240854e+01 -1.162979e+01 0.000000e+00
      vertex 1.277039e+01 -1.166783e+01 0.000000e+00
    endloop
  endfacet
  facet normal -5.000000e-01 -8.660254e-01 9.263053e-17
    outer loop
      vertex 1.308549e+01 -1.184975e+01 3.500000e+00
      vertex 1.277039e+01 -1.166783e+01 0.000000e+00
      vertex 1.308549e+01 -1.184975e+01 0.000000e+00
    endloop
  endfacet
  facet normal -8.090170e-01 -5.877852e-01 0.000000e+00
    outer loop
      vertex 1.329935e+01 -1.214411e+01 3.500000e+00
      vertex 1.308549e+01 -1.184975e+01 0.000000e+00
      vertex 1.329935e+01 -1.214411e+01 0.000000e+00
    endloop
  endfacet
  facet normal -9.781476e-01 -2.079117e-01 0.000000e+00
    outer loop
      vertex 1.337500e+01 -1.250000e+01 3.500000e+00
      vertex 1.329935e+01 -1.214411e+01 0.000000e+00
      vertex 1.337500e+01 -1.250000e+01 0.000000e+00
    endloop
  endfacet
  facet normal -9.781476e-01 2.079117e-01 0.000000e+00
    outer loop
      vertex 1.329935e+01 -1.285589e+01 3.500000e+00
      vertex 1.337500e+01 -1.250000e+01 3.500000e+00
      vertex 1.337500e+01 -1.250000e+01 0.000000e+00
    endloop
  endfacet
  facet normal -1.045285e-01 9.945219e-01 0.000000e+00
    outer loop
      vertex 1.277039e+01 -1.333217e+01 3.500000e+00
      vertex 1.277039e+01 -1.333217e+01 0.000000e+00
      vertex 1.240854e+01 -1.337021e+01 3.500000e+00
    endloop
  endfacet
  facet normal 3.090170e-01 9.510565e-01 0.000000e+00
    outer loop
      vertex 1.240854e+01 -1.337021e+01 3.500000e+00
      vertex 1.240854e+01 -1.337021e+01 0.000000e+00
      vertex 1.206250e+01 -1.325777e+01 3.500000e+00
    endloop
  endfacet
  facet normal 6.691306e-01 7.431448e-01 9.429217e-17
    outer loop
      vertex 1.206250e+01 -1.325777e+01 3.500000e+00
      vertex 1.206250e+01 -1.325777e+01 0.000000e+00
      vertex 1.179211e+01 -1.301431e+01 3.500000e+00
    endloop
  endfacet
  facet normal 9.135454e-01 4.067366e-01 0.000000e+00
    outer loop
      vertex 1.179211e+01 -1.301431e+01 3.500000e+00
      vertex 1.179211e+01 -1.301431e+01 0.000000e+00
      vertex 1.164412e+01 -1.268192e+01 3.500000e+00
    endloop
  endfacet
  facet normal 1.000000e+00 0.000000e+00 0.000000e+00
    outer loop
      vertex 1.164412e+01 -1.268192e+01 3.500000e+00
      vertex 1.164412e+01 -1.268192e+01 0.000000e+00
      vertex 1.164412e+01 -1.231808e+01 3.500000e+00
    endloop
  endfacet
  facet normal 9.135454e-01 -4.067366e-01 -1.032156e-16
    outer loop
      vertex 1.164412e+01 -1.231808e+01 3.500000e+00
      vertex 1.164412e+01 -1.231808e+01 0.000000e+00
      vertex 1.179211e+01 -1.198569e+01 3.500000e+00
    endloop
  endfacet
  facet normal 6.691306e-01 -7.431448e-01 0.000000e+00
    outer loop
      vertex 1.179211e+01 -1.198569e+01 3.500000e+00
      vertex 1.179211e+01 -1.198569e+01 0.000000e+00
      vertex 1.206250e+01 -1.174223e+01 3.500000e+00
    endloop
  endfacet
  facet normal 3.090170e-01 -9.510565e-01 0.000000e+00
    outer loop
      vertex 1.206250e+01 -1.174223e+01 3.500000e+00
      vertex 1.206250e+01 -1.174223e+01 0.000000e+00
      vertex 1.240854e+01 -1.162979e+01 3.500000e+00
    endloop
  endfacet
  facet normal -1.045285e-01 -9.945219e-01 -0.000000e+00
    outer loop
      vertex 1.240854e+01 -1.162979e+01 3.500000e+00
      vertex 1.240854e+01 -1.162979e+01 0.000000e+00
      vertex 1.277039e+01 -1.166783e+01 3.500000e+00
    endloop
  endfacet
  facet normal -5.000000e-01 -8.660254e-01 -0.000000e+00
    outer loop
      vertex 1.277039e+01 -1.166783e+01 3.500000e+00
      vertex 1.277039e+01 -1.166783e+01 0.000000e+00
      vertex 1.308549e+01 -1.184975e+01 3.500000e+00
    endloop
  endfacet
  facet normal -8.090170e-01 -5.877852e-01 -5.614093e-17
    outer loop
      vertex 1.308549e+01 -1.184975e+01 3.500000e+00
      vertex 1.308549e+01 -1.184975e+01 0.000000e+00
      vertex 1.329935e+01 -1.214411e+01 3.500000e+00
    endloop
  endfacet
  facet normal -9.781476e-01 -2.079117e-01 -0.000000e+00
    outer loop
      vertex 1.329935e+01 -1.214411e+01 3.500000e+00
      vertex 1.329935e+01 -1.214411e+01 0.000000e+00
      vertex 1.337500e+01 -1.250000e+01 3.500000e+00
    endloop
  endfacet
  facet normal -9.781476e-01 2.079117e-01 0.000000e+00
    outer loop
      vertex -1.170065e+01 -1.285589e+01 0.000000e+00
      vertex -1.170065e+01 -1.285589e+01 3.500000e+00
      vertex -1.162500e+01 -1.250000e+01 0.000000e+00
    endloop
  endfacet
  facet normal -8.090170e-01 5.877852e-01 0.000000e+00
    outer loop
      vertex -1.170065e+01 -1.285589e+01 0.000000e+00
      vertex -1.191451e+01 -1.315025e+01 3.500000e+00
      vertex -1.170065e+01 -1.285589e+01 3.500000e+00
    endloop
  endfacet
  facet normal -8.090170e-01 5.877852e-01 0.000000e+00
    outer loop
      vertex -1.170065e+01 -1.285589e+01 0.000000e+00
      vertex -1.191451e+01 -1.315025e+01 0.000000e+00
      vertex -1.191451e+01 -1.315025e+01 3.500000e+00
    endloop
  endfacet
  facet normal -5.000000e-01 8.660254e-01 0.000000e+00
    outer loop
      vertex -1.191451e+01 -1.315025e+01 3.500000e+00
      vertex -1.191451e+01 -1.315025e+01 0.000000e+00
      vertex -1.222961e+01 -1.333217e+01 3.500000e+00
    endloop
  endfacet
  facet normal -5.000000e-01 8.660254e-01 0.000000e+00
    outer loop
      vertex -1.222961e+01 -1.333217e+01 3.500000e+00
      vertex -1.191451e+01 -1.315025e+01 0.000000e+00
      vertex -1.222961e+01 -1.333217e+01 0.000000e+00
    endloop
  endfacet
  facet normal -1.045285e-01 9.945219e-01 2.125053e-16
    outer loop
      vertex -1.259146e+01 -1.337021e+01 3.500000e+00
      vertex -1.222961e+01 -1.333217e+01 0.000000e+00
      vertex -1.259146e+01 -1.337021e+01 0.000000e+00
    endloop
  endfacet
  facet normal 3.090170e-01 9.510565e-01 1.253237e-16
    outer loop
      vertex -1.293750e+01 -1.325777e+01 3.500000e+00
      vertex -1.259146e+01 -1.337021e+01 0.000000e+00
      vertex -1.293750e+01 -1.325777e+01 0.000000e+00
    endloop
  endfacet
  facet normal 6.691306e-01 7.431448e-01 0.000000e+00
    outer loop
      vertex -1.320789e+01 -1.301431e+01 3.500000e+00
      vertex -1.293750e+01 -1.325777e+01 0.000000e+00
      vertex -1.320789e+01 -1.301431e+01 0.000000e+00
    endloop
  endfacet
  facet normal 9.135454e-01 4.067366e-01 1.035282e-16
    outer loop
      vertex -1.335588e+01 -1.268192e+01 3.500000e+00
      vertex -1.320789e+01 -1.301431e+01 0.000000e+00
      vertex -1.335588e+01 -1.268192e+01 0.000000e+00
    endloop
  endfacet
  facet normal 1.000000e+00 0.000000e+00 0.000000e+00
    outer loop
      vertex -1.335588e+01 -1.231808e+01 3.500000e+00
      vertex -1.335588e+01 -1.268192e+01 0.000000e+00
      vertex -1.335588e+01 -1.231808e+01 0.000000e+00
    endloop
  endfacet
  facet normal 9.135454e-01 -4.067366e-01 0.000000e+00
    outer loop
      vertex -1.320789e+01 -1.198569e+01 3.500000e+00
      vertex -1.335588e+01 -1.231808e+01 0.000000e+00
      vertex -1.320789e+01 -1.198569e+01 0.000000e+00
    endloop
  endfacet
  facet normal 6.691306e-01 -7.431448e-01 0.000000e+00
    outer loop
      vertex -1.293750e+01 -1.174223e+01 3.500000e+00
      vertex -1.320789e+01 -1.198569e+01 0.000000e+00
      vertex -1.293750e+01 -1.174223e+01 0.000000e+00
    endloop
  endfacet
  facet normal 3.090170e-01 -9.510565e-01 6.266183e-16
    outer loop
      vertex -1.259146e+01 -1.162979e+01 3.500000e+00
      vertex -1.293750e+01 -1.174223e+01 0.000000e+00
      vertex -1.259146e+01 -1.162979e+01 0.000000e+00
    endloop
  endfacet
  facet normal -1.045285e-01 -9.945219e-01 0.000000e+00
    outer loop
      vertex -1.222961e+01 -1.166783e+01 3.500000e+00
      vertex -1.259146e+01 -1.162979e+01 0.000000e+00
      vertex -1.222961e+01 -1.166783e+01 0.000000e+00
    endloop
  endfacet
  facet normal -5.000000e-01 -8.660254e-01 4.413572e-16
    outer loop
      vertex -1.191451e+01 -1.184975e+01 3.500000e+00
      vertex -1.222961e+01 -1.166783e+01 0.000000e+00
      vertex -1.191451e+01 -1.184975e+01 0.000000e+00
    endloop
  endfacet
  facet normal -8.090170e-01 -5.877852e-01 0.000000e+00
    outer loop
      vertex -1.170065e+01 -1.214411e+01 3.500000e+00
      vertex -1.191451e+01 -1.184975e+01 0.000000e+00
      vertex -1.170065e+01 -1.214411e+01 0.000000e+00
    endloop
  endfacet
  facet normal -9.781476e-01 -2.079117e-01 0.000000e+00
    outer loop
      vertex -1.162500e+01 -1.250000e+01 3.500000e+00
      vertex -1.170065e+01 -1.214411e+01 0.000000e+00
      vertex -1.162500e+01 -1.250000e+01 0.000000e+00
    endloop
  endfacet
  facet normal -9.781476e-01 2.079117e-01 0.000000e+00
    outer loop
      vertex -1.170065e+01 -1.285589e+01 3.500000e+00
      vertex -1.162500e+01 -1.250000e+01 3.500000e+00
      vertex -1.162500e+01 -1.250000e+01 0.000000e+00
    endloop
  endfacet
  facet normal -1.045285e-01 9.945219e-01 0.000000e+00
    outer loop
      vertex -1.222961e+01 -1.333217e+01 3.500000e+00
      vertex -1.222961e+01 -1.333217e+01 0.000000e+00
      vertex -1.259146e+01 -1.337021e+01 3.500000e+00
    endloop
  endfacet
  facet normal 3.090170e-01 9.510565e-01 -6.273422e-16
    outer loop
      vertex -1.259146e+01 -1.337021e+01 3.500000e+00
      vertex -1.259146e+01 -1.337021e+01 0.000000e+00
      vertex -1.293750e+01 -1.325777e+01 3.500000e+00
    endloop
  endfacet
  facet normal 6.691306e-01 7.431448e-01 9.429217e-17
    outer loop
      vertex -1.293750e+01 -1.325777e+01 3.500000e+00
      vertex -1.293750e+01 -1.325777e+01 0.000000e+00
      vertex -1.320789e+01 -1.301431e+01 3.500000e+00
    endloop
  endfacet
  facet normal 9.135454e-01 4.067366e-01 0.000000e+00
    outer loop
      vertex -1.320789e+01 -1.301431e+01 3.500000e+00
      vertex -1.320789e+01 -1.301431e+01 0.000000e+00
      vertex -1.335588e+01 -1.268192e+01 3.500000e+00
    endloop
  endfacet
  facet normal 1.000000e+00 0.000000e+00 0.000000e+00
    outer loop
      vertex -1.335588e+01 -1.268192e+01 3.500000e+00
      vertex -1.335588e+01 -1.268192e+01 0.000000e+00
      vertex -1.335588e+01 -1.231808e+01 3.500000e+00
    endloop
  endfacet
  facet normal 9.135454e-01 -4.067366e-01 -1.032156e-16
    outer loop
      vertex -1.335588e+01 -1.231808e+01 3.500000e+00
      vertex -1.335588e+01 -1.231808e+01 0.000000e+00
      vertex -1.320789e+01 -1.198569e+01 3.500000e+00
    endloop
  endfacet
  facet normal 6.691306e-01 -7.431448e-01 0.000000e+00
    outer loop
      vertex -1.320789e+01 -1.198569e+01 3.500000e+00
      vertex -1.320789e+01 -1.198569e+01 0.000000e+00
      vertex -1.293750e+01 -1.174223e+01 3.500000e+00
    endloop
  endfacet
  facet normal 3.090170e-01 -9.510565e-01 0.000000e+00
    outer loop
      vertex -1.293750e+01 -1.174223e+01 3.500000e+00
      vertex -1.293750e+01 -1.174223e+01 0.000000e+00
      vertex -1.259146e+01 -1.162979e+01 3.500000e+00
    endloop
  endfacet
  facet normal -1.045285e-01 -9.945219e-01 -2.122055e-16
    outer loop
      vertex -1.259146e+01 -1.162979e+01 3.500000e+00
      vertex -1.259146e+01 -1.162979e+01 0.000000e+00
      vertex -1.222961e+01 -1.166783e+01 3.500000e+00
    endloop
  endfacet
  facet normal -5.000000e-01 -8.660254e-01 -0.000000e+00
    outer loop
      vertex -1.222961e+01 -1.166783e+01 3.500000e+00
      vertex -1.222961e+01 -1.166783e+01 0.000000e+00
      vertex -1.191451e+01 -1.184975e+01 3.500000e+00
    endloop
  endfacet
  facet normal -8.090170e-01 -5.877852e-01 2.983190e-16
    outer loop
      vertex -1.191451e+01 -1.184975e+01 3.500000e+00
      vertex -1.191451e+01 -1.184975e+01 0.000000e+00
      vertex -1.170065e+01 -1.214411e+01 3.500000e+00
    endloop
  endfacet
  facet normal -9.781476e-01 -2.079117e-01 -0.000000e+00
    outer loop
      vertex -1.170065e+01 -1.214411e+01 3.500000e+00
      vertex -1.170065e+01 -1.214411e+01 0.000000e+00
      vertex -1.162500e+01 -1.250000e+01 3.500000e+00
    endloop
  endfacet
  facet normal -7.071068e-01 -7.071068e-01 0.000000e+00
    outer loop
      vertex 6.500000e+00 -1.450000e+01 0.000000e+00
      vertex 6.500000e+00 -1.450000e+01 3.500000e+00
      vertex -1.450000e+01 6.500000e+00 0.000000e+00
    endloop
  endfacet
  facet normal -7.071068e-01 -7.071068e-01 1.640586e-15
    outer loop
      vertex -1.450000e+01 6.500000e+00 0.000000e+00
      vertex 6.500000e+00 -1.450000e+01 3.500000e+00
      vertex -1.450000e+01 6.500000e+00 3.500000e+00
    endloop
  endfacet
  facet normal 7.071068e-01 7.071068e-01 0.000000e+00
    outer loop
      vertex 1.450000e+01 -6.500000e+00 3.500000e+00
      vertex 1.450000e+01 -6.500000e+00 0.000000e+00
      vertex -6.500000e+00 1.450000e+01 3.500000e+00
    endloop
  endfacet
  facet normal 7.071068e-01 7.071068e-01 0.000000e+00
    outer loop
      vertex -6.500000e+00 1.450000e+01 3.500000e+00
      vertex 1.450000e+01 -6.500000e+00 0.000000e+00
      vertex -6.500000e+00 1.450000e+01 0.000000e+00
    endloop
  endfacet
  facet normal -6.068832e-16 -6.068832e-16 -1.000000e+00
    outer loop
      vertex 7.207107e+00 -1.379289e+01 2.500000e+00
      vertex -1.379289e+01 7.207108e+00 2.500000e+00
      vertex 1.379289e+01 -7.207107e+00 2.500000e+00
    endloop
  endfacet
  facet normal -6.068832e-16 -6.068832e-16 -1.000000e+00
    outer loop
      vertex 1.379289e+01 -7.207107e+00 2.500000e+00
      vertex -1.379289e+01 7.207108e+00 2.500000e+00
      vertex -7.207108e+00 1.379289e+01 2.500000e+00
    endloop
  endfacet
  facet normal 7.071068e-01 7.071068e-01 -2.093457e-15
    outer loop
      vertex 7.207107e+00 -1.379289e+01 2.500000e+00
      vertex 7.207107e+00 -1.379289e+01 1.000000e+00
      vertex -1.379289e+01 7.207108e+00 2.500000e+00
    endloop
  endfacet
  facet normal 7.071068e-01 7.071068e-01 -3.828035e-15
    outer loop
      vertex -1.379289e+01 7.207108e+00 2.500000e+00
      vertex 7.207107e+00 -1.379289e+01 1.000000e+00
      vertex -1.379289e+01 7.207108e+00 1.000000e+00
    endloop
  endfacet
  facet normal -7.071068e-01 -7.071068e-01 0.000000e+00
    outer loop
      vertex 1.379289e+01 -7.207107e+00 1.000000e+00
      vertex 1.379289e+01 -7.207107e+00 2.500000e+00
      vertex -7.207108e+00 1.379289e+01 1.000000e+00
    endloop
  endfacet
  facet normal -7.071068e-01 -7.071068e-01 0.000000e+00
    outer loop
      vertex -7.207108e+00 1.379289e+01 1.000000e+00
      vertex 1.379289e+01 -7.207107e+00 2.500000e+00
      vertex -7.207108e+00 1.379289e+01 2.500000e+00
    endloop
  endfacet
  facet normal 6.490278e-16 6.490278e-16 1.000000e+00
    outer loop
      vertex 7.207107e+00 -1.379289e+01 1.000000e+00
      vertex 1.379289e+01 -7.207107e+00 1.000000e+00
      vertex -1.379289e+01 7.207108e+00 1.000000e+00
    endloop
  endfacet
  facet normal 6.490278e-16 6.490278e-16 1.000000e+00
    outer loop
      vertex -1.379289e+01 7.207108e+00 1.000000e+00
      vertex 1.379289e+01 -7.207107e+00 1.000000e+00
      vertex -7.207108e+00 1.379289e+01 1.000000e+00
    endloop
  endfacet
  facet normal -7.071068e-01 7.071068e-01 0.000000e+00
    outer loop
      vertex 1.379289e+01 -7.207107e+00 2.500000e+00
      vertex 1.379289e+01 -7.207107e+00 1.000000e+00
      vertex 7.207107e+00 -1.379289e+01 2.500000e+00
    endloop
  endfacet
  facet normal -7.071068e-01 7.071068e-01 -2.034400e-15
    outer loop
      vertex 7.207107e+00 -1.379289e+01 2.500000e+00
      vertex 1.379289e+01 -7.207107e+00 1.000000e+00
      vertex 7.207107e+00 -1.379289e+01 1.000000e+00
    endloop
  endfacet
  facet normal 7.071068e-01 -7.071068e-01 3.349531e-15
    outer loop
      vertex -1.379289e+01 7.207108e+00 2.500000e+00
      vertex -1.379289e+01 7.207108e+00 1.000000e+00
      vertex -7.207108e+00 1.379289e+01 2.500000e+00
    endloop
  endfacet
  facet normal 7.071068e-01 -7.071068e-01 0.000000e+00
    outer loop
      vertex -7.207108e+00 1.379289e+01 2.500000e+00
      vertex -1.379289e+01 7.207108e+00 1.000000e+00
      vertex -7.207108e+00 1.379289e+01 1.000000e+00
    endloop
  endfacet
endsolid Default
